                                                                        S      1
,,4HBase,4HBase,7Hunknown,7Hunknown,32,38,7,99,15,,1.,2,2HMM,1,0.08,15H2G      1
0180926.201513,0.01,10000.,15Hharis.jasarevic,7Hunknown,11,0,15H20180925G      2
.194518;                                                                G      3
     186       1                                                00000000D      1
     186             -75       1       0                               0D      2
     514       2                                                00010000D      3
     514                       1       1                               0D      4
     510       3                                                00010000D      5
     510             -75       1       1                               0D      6
     510       4                                                00010000D      7
     510             -75       1       1                               0D      8
     510       5                                                00010000D      9
     510             -75       1       1                               0D     10
     510       6                                                00010000D     11
     510             -75       1       1                               0D     12
     510       7                                                00010000D     13
     510             -75       1       1                               0D     14
     510       8                                                00010000D     15
     510             -75       1       1                               0D     16
     510       9                                                00010000D     17
     510             -75       1       1                               0D     18
     508      10                                                00010000D     19
     508                       1       1                               0D     20
     508      11                                                00010000D     21
     508                       1       1                               0D     22
     508      12                                                00010000D     23
     508                       1       1                               0D     24
     508      13                                                00010000D     25
     508                       1       1                               0D     26
     508      14                                                00010000D     27
     508                       1       1                               0D     28
     508      15                                                00010000D     29
     508                       1       1                               0D     30
     508      16                                                00010000D     31
     508                       1       1                               0D     32
     508      17                                                00010000D     33
     508                       1       1                               0D     34
     508      18                                                00010000D     35
     508                       1       1                               0D     36
     126      19                                                00010000D     37
     126       0              10       0                               0D     38
     126      29                                                00010000D     39
     126       0               2       0                               0D     40
     126      31                                                00010000D     41
     126       0              10       0                               0D     42
     126      41                                                00010000D     43
     126       0              10       0                               0D     44
     126      51                                                00010000D     45
     126       0               2       0                               0D     46
     126      53                                                00010000D     47
     126       0              10       0                               0D     48
     126      63                                                00010000D     49
     126       0              10       0                               0D     50
     126      73                                                00010000D     51
     126       0               2       0                               0D     52
     126      75                                                00010000D     53
     126       0              10       0                               0D     54
     128      85                                                00010000D     55
     128       0     -75      12       0                               0D     56
     128      97                                                00010000D     57
     128       0     -75       3       0                               0D     58
     128     100                                                00010000D     59
     128       0     -75      12       0                               0D     60
     128     112                                                00010000D     61
     128       0     -75       4       0                               0D     62
     128     116                                                00010000D     63
     128       0     -75      12       0                               0D     64
     128     128                                                00010000D     65
     128       0     -75       4       0                               0D     66
     128     132                                                00010000D     67
     128       0     -75       4       0                               0D     68
     502     136                                                00010000D     69
     502                       4       1                               0D     70
     504     140                                                00010001D     71
     504                       2       1                               0D     72
     406     142                                                00000000D     73
     406                       1      15                               0D     74
     314     143                                                00000200D     75
     314                       2       0                               0D     76
186,3,1,0,0,1,73;                                                      1P      1
514,7,5,1,7,1,9,1,11,1,13,1,15,1,17,1;                                 3P      2
510,55,1,1,19;                                                         5P      3
510,57,1,1,21;                                                         7P      4
510,59,1,1,23;                                                         9P      5
510,61,2,1,25,27;                                                     11P      6
510,63,1,1,29;                                                        13P      7
510,65,2,1,31,33;                                                     15P      8
510,67,1,1,35;                                                        17P      9
508,4,0,71,1,0,0,0,71,2,1,0,0,71,3,1,0,0,71,2,0,0;                    19P     10
508,1,0,71,3,0,0;                                                     21P     11
508,4,0,71,4,0,0,0,71,5,1,0,0,71,6,0,0,0,71,5,0,0;                    23P     12
508,1,0,71,4,1,0;                                                     25P     13
508,1,0,71,1,1,0;                                                     27P     14
508,4,0,71,7,0,0,0,71,8,1,0,0,71,9,1,0,0,71,8,0,0;                    29P     15
508,1,0,71,7,1,0;                                                     31P     16
508,1,0,71,6,1,0;                                                     33P     17
508,1,0,71,9,0,0;                                                     35P     18
126,8,2,0,1,0,0,-3.14159265358979,-3.14159265358979,                  37P     19
-3.14159265358979,-1.5707963267949,-1.5707963267949,0.,0.,            37P     20
1.5707963267949,1.5707963267949,3.14159265358979,                     37P     21
3.14159265358979,3.14159265358979,1.,0.707106781186548,1.,            37P     22
0.707106781186548,1.,0.707106781186548,1.,0.707106781186548,1.,       37P     23
-25.,3.06161699786838D-15,200.,-25.,25.,200.,                         37P     24
1.53080849893419D-15,25.,200.,25.,25.,200.,25.,0.,200.,25.,-25.,      37P     25
200.,1.53080849893419D-15,-25.,200.,-25.,-25.,200.,-25.,              37P     26
-3.06161699786838D-15,200.,-3.14159265358979,3.14159265358979,        37P     27
0.,0.,0.;                                                             37P     28
126,1,1,0,0,1,0,0.,0.,2.,2.,1.,1.,-25.,0.,200.,-25.,0.,150.,0.,       39P     29
2.,0.,0.,0.;                                                          39P     30
126,8,2,0,1,0,0,-3.14159265358979,-3.14159265358979,                  41P     31
-3.14159265358979,-1.5707963267949,-1.5707963267949,0.,0.,            41P     32
1.5707963267949,1.5707963267949,3.14159265358979,                     41P     33
3.14159265358979,3.14159265358979,1.,0.707106781186548,1.,            41P     34
0.707106781186548,1.,0.707106781186548,1.,0.707106781186548,1.,       41P     35
-25.,3.06161699786838D-15,150.,-25.,25.,150.,                         41P     36
1.53080849893419D-15,25.,150.,25.,25.,150.,25.,0.,150.,25.,-25.,      41P     37
150.,1.53080849893419D-15,-25.,150.,-25.,-25.,150.,-25.,              41P     38
-3.06161699786838D-15,150.,-3.14159265358979,3.14159265358979,        41P     39
0.,0.,0.;                                                             41P     40
126,8,2,0,1,0,0,-3.14159265358979,-3.14159265358979,                  43P     41
-3.14159265358979,-1.5707963267949,-1.5707963267949,0.,0.,            43P     42
1.5707963267949,1.5707963267949,3.14159265358979,                     43P     43
3.14159265358979,3.14159265358979,1.,0.707106781186548,1.,            43P     44
0.707106781186548,1.,0.707106781186548,1.,0.707106781186548,1.,       43P     45
-100.,-1.22464679914735D-14,200.,-100.,-100.,200.,                    43P     46
6.12323399573677D-15,-100.,200.,100.,-100.,200.,100.,0.,200.,         43P     47
100.,100.,200.,6.12323399573677D-15,100.,200.,-100.,100.,200.,        43P     48
-100.,1.22464679914735D-14,200.,-3.14159265358979,                    43P     49
3.14159265358979,0.,0.,0.;                                            43P     50
126,1,1,0,0,1,0,-0.5,-0.5,0.,0.,1.,1.,-100.,0.,200.,-100.,0.,         45P     51
150.,-0.5,0.,0.,0.,0.;                                                45P     52
126,8,2,0,1,0,0,-3.14159265358979,-3.14159265358979,                  47P     53
-3.14159265358979,-1.5707963267949,-1.5707963267949,0.,0.,            47P     54
1.5707963267949,1.5707963267949,3.14159265358979,                     47P     55
3.14159265358979,3.14159265358979,1.,0.707106781186548,1.,            47P     56
0.707106781186548,1.,0.707106781186548,1.,0.707106781186548,1.,       47P     57
-100.,1.22464679914735D-14,150.,-100.,100.,150.,                      47P     58
6.12323399573677D-15,100.,150.,100.,100.,150.,100.,0.,150.,100.,      47P     59
-100.,150.,6.12323399573677D-15,-100.,150.,-100.,-100.,150.,          47P     60
-100.,-1.22464679914735D-14,150.,-3.14159265358979,                   47P     61
3.14159265358979,0.,0.,0.;                                            47P     62
126,8,2,0,1,0,0,-3.14159265358979,-3.14159265358979,                  49P     63
-3.14159265358979,-1.5707963267949,-1.5707963267949,0.,0.,            49P     64
1.5707963267949,1.5707963267949,3.14159265358979,                     49P     65
3.14159265358979,3.14159265358979,1.,0.707106781186547,1.,            49P     66
0.707106781186548,1.,0.707106781186548,1.,0.707106781186547,1.,       49P     67
-125.,-1.53080849893419D-14,150.,-125.,-125.,150.,                    49P     68
7.65404249467096D-15,-125.,150.,125.,-125.,150.,125.,0.,150.,         49P     69
125.,125.,150.,7.65404249467096D-15,125.,150.,-125.,125.,150.,        49P     70
-125.,1.53080849893419D-14,150.,-3.14159265358979,                    49P     71
3.14159265358979,0.,0.,0.;                                            49P     72
126,1,1,0,0,1,0,-1.2,-1.2,0.,0.,1.,1.,-125.,0.,150.,-125.,0.,0.,      51P     73
-1.2,0.,0.,0.,0.;                                                     51P     74
126,8,2,0,1,0,0,-3.14159265358979,-3.14159265358979,                  53P     75
-3.14159265358979,-1.5707963267949,-1.5707963267949,0.,0.,            53P     76
1.5707963267949,1.5707963267949,3.14159265358979,                     53P     77
3.14159265358979,3.14159265358979,1.,0.707106781186547,1.,            53P     78
0.707106781186548,1.,0.707106781186548,1.,0.707106781186547,1.,       53P     79
-125.,-1.53080849893419D-14,0.,-125.,-125.,0.,                        53P     80
7.65404249467096D-15,-125.,0.,125.,-125.,0.,125.,0.,0.,125.,          53P     81
125.,0.,7.65404249467096D-15,125.,0.,-125.,125.,0.,-125.,             53P     82
1.53080849893419D-14,0.,-3.14159265358979,3.14159265358979,0.,        53P     83
0.,0.;                                                                53P     84
128,1,8,1,2,0,1,0,0,1,0.,0.,2.,2.,-3.14159265358979,                  55P     85
-3.14159265358979,-3.14159265358979,-1.5707963267949,                 55P     86
-1.5707963267949,0.,0.,1.5707963267949,1.5707963267949,               55P     87
3.14159265358979,3.14159265358979,3.14159265358979,1.,1.,             55P     88
0.707106781186548,0.707106781186548,1.,1.,0.707106781186548,          55P     89
0.707106781186548,1.,1.,0.707106781186548,0.707106781186548,1.,       55P     90
1.,0.707106781186548,0.707106781186548,1.,1.,-25.,0.,200.,-25.,       55P     91
0.,150.,-25.,25.,200.,-25.,25.,150.,0.,25.,200.,0.,25.,150.,25.,      55P     92
25.,200.,25.,25.,150.,25.,0.,200.,25.,0.,150.,25.,-25.,200.,25.,      55P     93
-25.,150.,0.,-25.,200.,0.,-25.,150.,-25.,-25.,200.,-25.,-25.,         55P     94
150.,-25.,0.,200.,-25.,0.,150.,0.,2.,-3.14159265358979,               55P     95
3.14159265358979;                                                     55P     96
128,1,1,1,1,0,0,1,0,0,-2.501,-2.501,2.501,2.501,-2.501,-2.501,        57P     97
2.501,2.501,1.,1.,1.,1.,-25.01,-25.01,150.,25.01,-25.01,150.,         57P     98
-25.01,25.01,150.,25.01,25.01,150.,-2.501,2.501,-2.501,2.501;         57P     99
128,1,8,1,2,0,1,0,0,1,0.,0.,0.5,0.5,-3.14159265358979,                59P    100
-3.14159265358979,-3.14159265358979,-1.5707963267949,                 59P    101
-1.5707963267949,0.,0.,1.5707963267949,1.5707963267949,               59P    102
3.14159265358979,3.14159265358979,3.14159265358979,1.,1.,             59P    103
0.707106781186548,0.707106781186548,1.,1.,0.707106781186548,          59P    104
0.707106781186548,1.,1.,0.707106781186548,0.707106781186548,1.,       59P    105
1.,0.707106781186548,0.707106781186548,1.,1.,-100.,0.,200.,           59P    106
-100.,0.,150.,-100.,-100.,200.,-100.,-100.,150.,0.,-100.,200.,        59P    107
0.,-100.,150.,100.,-100.,200.,100.,-100.,150.,100.,0.,200.,100.,      59P    108
0.,150.,100.,100.,200.,100.,100.,150.,0.,100.,200.,0.,100.,150.,      59P    109
-100.,100.,200.,-100.,100.,150.,-100.,0.,200.,-100.,0.,150.,0.,       59P    110
0.5,-3.14159265358979,3.14159265358979;                               59P    111
128,1,1,1,1,0,0,1,0,0,-10.001,-10.001,10.001,10.001,-10.001,          61P    112
-10.001,10.001,10.001,1.,1.,1.,1.,-100.01,-100.01,200.,100.01,        61P    113
-100.01,200.,-100.01,100.01,200.,100.01,100.01,200.,-10.001,          61P    114
10.001,-10.001,10.001;                                                61P    115
128,1,8,1,2,0,1,0,0,1,0.,0.,1.2,1.2,-3.14159265358979,                63P    116
-3.14159265358979,-3.14159265358979,-1.5707963267949,                 63P    117
-1.5707963267949,0.,0.,1.5707963267949,1.5707963267949,               63P    118
3.14159265358979,3.14159265358979,3.14159265358979,1.,1.,             63P    119
0.707106781186548,0.707106781186548,1.,1.,0.707106781186548,          63P    120
0.707106781186548,1.,1.,0.707106781186548,0.707106781186548,1.,       63P    121
1.,0.707106781186548,0.707106781186548,1.,1.,-125.,0.,150.,           63P    122
-125.,0.,0.,-125.,-125.,150.,-125.,-125.,0.,0.,-125.,150.,0.,         63P    123
-125.,0.,125.,-125.,150.,125.,-125.,0.,125.,0.,150.,125.,0.,0.,       63P    124
125.,125.,150.,125.,125.,0.,0.,125.,150.,0.,125.,0.,-125.,125.,       63P    125
150.,-125.,125.,0.,-125.,0.,150.,-125.,0.,0.,0.,1.2,                  63P    126
-3.14159265358979,3.14159265358979;                                   63P    127
128,1,1,1,1,0,0,1,0,0,-12.501,-12.501,12.501,12.501,-12.501,          65P    128
-12.501,12.501,12.501,1.,1.,1.,1.,-125.01,-125.01,150.,125.01,        65P    129
-125.01,150.,-125.01,125.01,150.,125.01,125.01,150.,-12.501,          65P    130
12.501,-12.501,12.501;                                                65P    131
128,1,1,1,1,0,0,1,0,0,-12.501,-12.501,12.501,12.501,-12.501,          67P    132
-12.501,12.501,12.501,1.,1.,1.,1.,125.01,-125.01,0.,-125.01,          67P    133
-125.01,0.,125.01,125.01,0.,-125.01,125.01,0.,-12.501,12.501,         67P    134
-12.501,12.501;                                                       67P    135
502,6,-25.,-3.06161699786838D-15,200.,-25.,                           69P    136
-3.06161699786838D-15,150.,-100.,-1.22464679914735D-14,200.,          69P    137
-100.,-1.22464679914735D-14,150.,-125.,-1.53080849893419D-14,         69P    138
150.,-125.,-1.53080849893419D-14,0.;                                  69P    139
504,9,37,69,1,69,1,39,69,1,69,2,41,69,2,69,2,43,69,3,69,3,45,69,      71P    140
3,69,4,47,69,4,69,4,49,69,5,69,5,51,69,5,69,6,53,69,6,69,6;           71P    141
406,1,5HBody1;                                                        73P    142
314,62.7450980392157,62.7450980392157,62.7450980392157,13HSteel       75P    143
- Satin;                                                              75P    144
S      1G      3D     76P    144                                        T      1
