                                                                        S      1
,,9HJoint6 v1,9HJoint6 v1,7Hunknown,7Hunknown,32,38,7,99,15,,1.,2,2HMM, G      1
1,0.08,15H20180926.201133,0.01,10000.,15Hharis.jasarevic,7Hunknown,11,0,G      2
15H20180925.194213;                                                     G      3
     186       1                                                00000000D      1
     186             -55       1       0                               0D      2
     514       2                                                00010000D      3
     514                       1       1                               0D      4
     510       3                                                00010000D      5
     510             -55       1       1                               0D      6
     510       4                                                00010000D      7
     510             -55       1       1                               0D      8
     510       5                                                00010000D      9
     510             -55       1       1                               0D     10
     510       6                                                00010000D     11
     510             -55       1       1                               0D     12
     510       7                                                00010000D     13
     510             -55       1       1                               0D     14
     508       8                                                00010000D     15
     508                       1       1                               0D     16
     508       9                                                00010000D     17
     508                       1       1                               0D     18
     508      10                                                00010000D     19
     508                       1       1                               0D     20
     508      11                                                00010000D     21
     508                       1       1                               0D     22
     508      12                                                00010000D     23
     508                       1       1                               0D     24
     508      13                                                00010000D     25
     508                       1       1                               0D     26
     126      14                                                00010000D     27
     126       0              10       0                               0D     28
     126      24                                                00010000D     29
     126       0              10       0                               0D     30
     126      34                                                00010000D     31
     126       0               9       0                               0D     32
     126      43                                                00010000D     33
     126       0               2       0                               0D     34
     126      45                                                00010000D     35
     126       0               2       0                               0D     36
     126      47                                                00010000D     37
     126       0              10       0                               0D     38
     128      57                                                00010000D     39
     128       0     -55       3       0                               0D     40
     128      60                                                00010000D     41
     128       0     -55      12       0                               0D     42
     128      72                                                00010000D     43
     128       0     -55       3       0                               0D     44
     128      75                                                00010000D     45
     128       0     -55      12       0                               0D     46
     128      87                                                00010000D     47
     128       0     -55       3       0                               0D     48
     502      90                                                00010000D     49
     502                       3       1                               0D     50
     504      93                                                00010001D     51
     504                       2       1                               0D     52
     406      95                                                00000000D     53
     406                       1      15                               0D     54
     314      96                                                00000200D     55
     314                       2       0                               0D     56
186,3,1,0,0,1,53;                                                      1P      1
514,5,5,1,7,1,9,1,11,1,13,1;                                           3P      2
510,39,2,1,15,17;                                                      5P      3
510,41,1,1,19;                                                         7P      4
510,43,1,1,21;                                                         9P      5
510,45,1,1,23;                                                        11P      6
510,47,1,1,25;                                                        13P      7
508,1,0,51,1,0,0;                                                     15P      8
508,1,0,51,2,1,0;                                                     17P      9
508,4,0,51,3,0,0,0,51,4,1,0,0,51,1,1,0,0,51,4,0,0;                    19P     10
508,1,0,51,3,1,0;                                                     21P     11
508,4,0,51,2,0,0,0,51,5,1,0,0,51,6,1,0,0,51,5,0,0;                    23P     12
508,1,0,51,6,0,0;                                                     25P     13
126,8,2,0,1,0,0,-3.14159265358979,-3.14159265358979,                  27P     14
-3.14159265358979,-1.5707963267949,-1.5707963267949,0.,0.,            27P     15
1.5707963267949,1.5707963267949,3.14159265358979,                     27P     16
3.14159265358979,3.14159265358979,1.,0.707106781186548,1.,            27P     17
0.707106781186548,1.,0.707106781186548,1.,0.707106781186548,1.,       27P     18
-30.,-3.67394039744206D-15,-10.,-30.,-30.,-10.,                       27P     19
1.83697019872103D-15,-30.,-10.,30.,-30.,-10.,30.,0.,-10.,30.,         27P     20
30.,-10.,1.83697019872103D-15,30.,-10.,-30.,30.,-10.,-30.,            27P     21
3.67394039744206D-15,-10.,-3.14159265358979,3.14159265358979,0.,      27P     22
0.,0.;                                                                27P     23
126,8,2,0,1,0,0,-3.14159265358979,-3.14159265358979,                  29P     24
-3.14159265358979,-1.5707963267949,-1.5707963267949,0.,0.,            29P     25
1.5707963267949,1.5707963267949,3.14159265358979,                     29P     26
3.14159265358979,3.14159265358979,1.,0.707106781186548,1.,            29P     27
0.707106781186548,1.,0.707106781186548,1.,0.707106781186548,1.,       29P     28
-25.,-3.06161699786838D-15,-10.,-25.,-25.,-10.,                       29P     29
1.53080849893419D-15,-25.,-10.,25.,-25.,-10.,25.,0.,-10.,25.,         29P     30
25.,-10.,1.53080849893419D-15,25.,-10.,-25.,25.,-10.,-25.,            29P     31
3.06161699786838D-15,-10.,-3.14159265358979,3.14159265358979,0.,      29P     32
0.,0.;                                                                29P     33
126,8,2,0,1,0,0,-3.14159265358979,-3.14159265358979,                  31P     34
-3.14159265358979,-1.5707963267949,-1.5707963267949,0.,0.,            31P     35
1.5707963267949,1.5707963267949,3.14159265358979,                     31P     36
3.14159265358979,3.14159265358979,1.,0.707106781186548,1.,            31P     37
0.707106781186548,1.,0.707106781186548,1.,0.707106781186548,1.,       31P     38
-30.,-3.67394039744206D-15,0.,-30.,-30.,0.,1.83697019872103D-15,      31P     39
-30.,0.,30.,-30.,0.,30.,0.,0.,30.,30.,0.,1.83697019872103D-15,        31P     40
30.,0.,-30.,30.,0.,-30.,3.67394039744206D-15,0.,                      31P     41
-3.14159265358979,3.14159265358979,0.,0.,0.;                          31P     42
126,1,1,0,0,1,0,-0.333333333333333,-0.333333333333333,0.,0.,1.,       33P     43
1.,-30.,0.,0.,-30.,0.,-10.,-0.333333333333333,0.,0.,0.,0.;            33P     44
126,1,1,0,0,1,0,-2.4,-2.4,0.,0.,1.,1.,-25.,0.,-10.,-25.,0.,-70.,      35P     45
-2.4,0.,0.,0.,0.;                                                     35P     46
126,8,2,0,1,0,0,-3.14159265358979,-3.14159265358979,                  37P     47
-3.14159265358979,-1.5707963267949,-1.5707963267949,0.,0.,            37P     48
1.5707963267949,1.5707963267949,3.14159265358979,                     37P     49
3.14159265358979,3.14159265358979,1.,0.707106781186548,1.,            37P     50
0.707106781186548,1.,0.707106781186548,1.,0.707106781186548,1.,       37P     51
-25.,-3.06161699786838D-15,-70.,-25.,-25.,-70.,                       37P     52
1.53080849893419D-15,-25.,-70.,25.,-25.,-70.,25.,0.,-70.,25.,         37P     53
25.,-70.,1.53080849893419D-15,25.,-70.,-25.,25.,-70.,-25.,            37P     54
3.06161699786838D-15,-70.,-3.14159265358979,3.14159265358979,0.,      37P     55
0.,0.;                                                                37P     56
128,1,1,1,1,0,0,1,0,0,-3.001,-3.001,3.001,3.001,-3.001,-3.001,        39P     57
3.001,3.001,1.,1.,1.,1.,30.01,-30.01,-10.,-30.01,-30.01,-10.,         39P     58
30.01,30.01,-10.,-30.01,30.01,-10.,-3.001,3.001,-3.001,3.001;         39P     59
128,1,8,1,2,0,1,0,0,1,0.,0.,0.333333333333333,0.333333333333333,      41P     60
-3.14159265358979,-3.14159265358979,-3.14159265358979,                41P     61
-1.5707963267949,-1.5707963267949,0.,0.,1.5707963267949,              41P     62
1.5707963267949,3.14159265358979,3.14159265358979,                    41P     63
3.14159265358979,1.,1.,0.707106781186548,0.707106781186548,1.,        41P     64
1.,0.707106781186548,0.707106781186548,1.,1.,0.707106781186548,       41P     65
0.707106781186548,1.,1.,0.707106781186548,0.707106781186548,1.,       41P     66
1.,-30.,0.,0.,-30.,0.,-10.,-30.,-30.,0.,-30.,-30.,-10.,0.,-30.,       41P     67
0.,0.,-30.,-10.,30.,-30.,0.,30.,-30.,-10.,30.,0.,0.,30.,0.,-10.,      41P     68
30.,30.,0.,30.,30.,-10.,0.,30.,0.,0.,30.,-10.,-30.,30.,0.,-30.,       41P     69
30.,-10.,-30.,0.,0.,-30.,0.,-10.,0.,0.333333333333333,                41P     70
-3.14159265358979,3.14159265358979;                                   41P     71
128,1,1,1,1,0,0,1,0,0,-3.001,-3.001,3.001,3.001,-3.001,-3.001,        43P     72
3.001,3.001,1.,1.,1.,1.,-30.01,-30.01,0.,30.01,-30.01,0.,-30.01,      43P     73
30.01,0.,30.01,30.01,0.,-3.001,3.001,-3.001,3.001;                    43P     74
128,1,8,1,2,0,1,0,0,1,0.,0.,2.4,2.4,-3.14159265358979,                45P     75
-3.14159265358979,-3.14159265358979,-1.5707963267949,                 45P     76
-1.5707963267949,0.,0.,1.5707963267949,1.5707963267949,               45P     77
3.14159265358979,3.14159265358979,3.14159265358979,1.,1.,             45P     78
0.707106781186548,0.707106781186548,1.,1.,0.707106781186548,          45P     79
0.707106781186548,1.,1.,0.707106781186548,0.707106781186548,1.,       45P     80
1.,0.707106781186548,0.707106781186548,1.,1.,-25.,0.,-10.,-25.,       45P     81
0.,-70.,-25.,-25.,-10.,-25.,-25.,-70.,0.,-25.,-10.,0.,-25.,-70.,      45P     82
25.,-25.,-10.,25.,-25.,-70.,25.,0.,-10.,25.,0.,-70.,25.,25.,          45P     83
-10.,25.,25.,-70.,0.,25.,-10.,0.,25.,-70.,-25.,25.,-10.,-25.,         45P     84
25.,-70.,-25.,0.,-10.,-25.,0.,-70.,0.,2.4,-3.14159265358979,          45P     85
3.14159265358979;                                                     45P     86
128,1,1,1,1,0,0,1,0,0,-2.501,-2.501,2.501,2.501,-2.501,-2.501,        47P     87
2.501,2.501,1.,1.,1.,1.,25.01,-25.01,-70.,-25.01,-25.01,-70.,         47P     88
25.01,25.01,-70.,-25.01,25.01,-70.,-2.501,2.501,-2.501,2.501;         47P     89
502,4,-30.,-3.67394039744206D-15,-10.,-25.,                           49P     90
-3.06161699786838D-15,-10.,-30.,-3.67394039744206D-15,0.,-25.,        49P     91
-3.06161699786838D-15,-70.;                                           49P     92
504,6,27,49,1,49,1,29,49,2,49,2,31,49,3,49,3,33,49,3,49,1,35,49,      51P     93
2,49,4,37,49,4,49,4;                                                  51P     94
406,1,5HBody1;                                                        53P     95
314,62.7450980392157,62.7450980392157,62.7450980392157,13HSteel       55P     96
- Satin;                                                              55P     97
S      1G      3D     56P     97                                        T      1
