                                                                        S      1
,,6HJoint3,6HJoint3,7Hunknown,7Hunknown,32,38,7,99,15,,1.,2,2HMM,1,0.08,G      1
15H20180927.234923,0.01,10000.,15Hharis.jasarevic,7Hunknown,11,0,15H2018G      2
0927.213607;                                                            G      3
     186       1                                                00000000D      1
     186            -211       1       0                               0D      2
     514       2                                                00010000D      3
     514                       2       1                               0D      4
     510       4                                                00010000D      5
     510            -211       1       1                               0D      6
     510       5                                                00010000D      7
     510            -211       1       1                               0D      8
     510       6                                                00010000D      9
     510            -211       1       1                               0D     10
     510       7                                                00010000D     11
     510            -211       1       1                               0D     12
     510       8                                                00010000D     13
     510            -211       1       1                               0D     14
     510       9                                                00010000D     15
     510            -211       1       1                               0D     16
     510      10                                                00010000D     17
     510            -211       1       1                               0D     18
     510      11                                                00010000D     19
     510            -211       1       1                               0D     20
     510      12                                                00010000D     21
     510            -211       1       1                               0D     22
     510      13                                                00010000D     23
     510            -211       1       1                               0D     24
     510      14                                                00010000D     25
     510            -211       1       1                               0D     26
     510      15                                                00010000D     27
     510            -211       1       1                               0D     28
     510      16                                                00010000D     29
     510            -211       1       1                               0D     30
     510      17                                                00010000D     31
     510            -211       1       1                               0D     32
     510      18                                                00010000D     33
     510            -211       1       1                               0D     34
     510      19                                                00010000D     35
     510            -211       1       1                               0D     36
     510      20                                                00010000D     37
     510            -211       1       1                               0D     38
     510      21                                                00010000D     39
     510            -211       1       1                               0D     40
     510      22                                                00010000D     41
     510            -211       1       1                               0D     42
     510      23                                                00010000D     43
     510            -211       1       1                               0D     44
     508      24                                                00010000D     45
     508                       2       1                               0D     46
     508      26                                                00010000D     47
     508                       1       1                               0D     48
     508      27                                                00010000D     49
     508                       1       1                               0D     50
     508      28                                                00010000D     51
     508                       2       1                               0D     52
     508      30                                                00010000D     53
     508                       1       1                               0D     54
     508      31                                                00010000D     55
     508                       1       1                               0D     56
     508      32                                                00010000D     57
     508                       1       1                               0D     58
     508      33                                                00010000D     59
     508                       1       1                               0D     60
     508      34                                                00010000D     61
     508                       1       1                               0D     62
     508      35                                                00010000D     63
     508                       2       1                               0D     64
     508      37                                                00010000D     65
     508                       1       1                               0D     66
     508      38                                                00010000D     67
     508                       1       1                               0D     68
     508      39                                                00010000D     69
     508                       2       1                               0D     70
     508      41                                                00010000D     71
     508                       1       1                               0D     72
     508      42                                                00010000D     73
     508                       1       1                               0D     74
     508      43                                                00010000D     75
     508                       2       1                               0D     76
     508      45                                                00010000D     77
     508                       1       1                               0D     78
     508      46                                                00010000D     79
     508                       2       1                               0D     80
     508      48                                                00010000D     81
     508                       1       1                               0D     82
     508      49                                                00010000D     83
     508                       1       1                               0D     84
     126      50                                                00010000D     85
     126       0               2       0                               0D     86
     126      52                                                00010000D     87
     126       0               2       0                               0D     88
     126      54                                                00010000D     89
     126       0               5       0                               0D     90
     126      59                                                00010000D     91
     126       0               2       0                               0D     92
     126      61                                                00010000D     93
     126       0               6       0                               0D     94
     126      67                                                00010000D     95
     126       0               2       0                               0D     96
     126      69                                                00010000D     97
     126       0               5       0                               0D     98
     126      74                                                00010000D     99
     126       0               2       0                               0D    100
     126      76                                                00010000D    101
     126       0               2       0                               0D    102
     126      78                                                00010000D    103
     126       0               2       0                               0D    104
     126      80                                                00010000D    105
     126       0               6       0                               0D    106
     126      86                                                00010000D    107
     126       0               3       0                               0D    108
     126      89                                                00010000D    109
     126       0               3       0                               0D    110
     126      92                                                00010000D    111
     126       0               3       0                               0D    112
     126      95                                                00010000D    113
     126       0               2       0                               0D    114
     126      97                                                00010000D    115
     126       0               2       0                               0D    116
     126      99                                                00010000D    117
     126       0               3       0                               0D    118
     126     102                                                00010000D    119
     126       0               7       0                               0D    120
     126     109                                                00010000D    121
     126       0               3       0                               0D    122
     126     112                                                00010000D    123
     126       0               3       0                               0D    124
     126     115                                                00010000D    125
     126       0               2       0                               0D    126
     126     117                                                00010000D    127
     126       0               2       0                               0D    128
     126     119                                                00010000D    129
     126       0               6       0                               0D    130
     126     125                                                00010000D    131
     126       0               2       0                               0D    132
     126     127                                                00010000D    133
     126       0               2       0                               0D    134
     126     129                                                00010000D    135
     126       0               4       0                               0D    136
     126     133                                                00010000D    137
     126       0               3       0                               0D    138
     126     136                                                00010000D    139
     126       0               6       0                               0D    140
     126     142                                                00010000D    141
     126       0               2       0                               0D    142
     126     144                                                00010000D    143
     126       0               4       0                               0D    144
     126     148                                                00010000D    145
     126       0               3       0                               0D    146
     126     151                                                00010000D    147
     126       0               5       0                               0D    148
     126     156                                                00010000D    149
     126       0               3       0                               0D    150
     126     159                                                00010000D    151
     126       0               3       0                               0D    152
     126     162                                                00010000D    153
     126       0               7       0                               0D    154
     126     169                                                00010000D    155
     126       0               4       0                               0D    156
     126     173                                                00010000D    157
     126       0              13       0                               0D    158
     126     186                                                00010000D    159
     126       0              10       0                               0D    160
     126     196                                                00010000D    161
     126       0               3       0                               0D    162
     126     199                                                00010000D    163
     126       0               7       0                               0D    164
     128     206                                                00010000D    165
     128       0    -211       7       0                               0D    166
     128     213                                                00010000D    167
     128       0    -211       7       0                               0D    168
     128     220                                                00010000D    169
     128       0    -211       7       0                               0D    170
     128     227                                                00010000D    171
     128       0    -211      10       0                               0D    172
     128     237                                                00010000D    173
     128       0    -211       5       0                               0D    174
     128     242                                                00010000D    175
     128       0    -211       6       0                               0D    176
     128     248                                                00010000D    177
     128       0    -211       5       0                               0D    178
     128     253                                                00010000D    179
     128       0    -211       4       0                               0D    180
     128     257                                                00010000D    181
     128       0    -211       4       0                               0D    182
     128     261                                                00010000D    183
     128       0    -211       8       0                               0D    184
     128     269                                                00010000D    185
     128       0    -211       7       0                               0D    186
     128     276                                                00010000D    187
     128       0    -211       8       0                               0D    188
     128     284                                                00010000D    189
     128       0    -211       9       0                               0D    190
     128     293                                                00010000D    191
     128       0    -211       5       0                               0D    192
     128     298                                                00010000D    193
     128       0    -211       4       0                               0D    194
     128     302                                                00010000D    195
     128       0    -211      23       0                               0D    196
     128     325                                                00010000D    197
     128       0    -211       5       0                               0D    198
     128     330                                                00010000D    199
     128       0    -211      16       0                               0D    200
     128     346                                                00010000D    201
     128       0    -211       3       0                               0D    202
     128     349                                                00010000D    203
     128       0    -211       6       0                               0D    204
     502     355                                                00010000D    205
     502                      12       1                               0D    206
     504     367                                                00010001D    207
     504                      11       1                               0D    208
     406     378                                                00000000D    209
     406                       1      15                               0D    210
     314     379                                                00000200D    211
     314                       2       0                               0D    212
     314     381                                                00000200D    213
     314                       2       0                               0D    214
186,3,1,0,0,1,209;                                                     1P      1
514,20,5,1,7,1,9,1,11,1,13,1,15,1,17,1,19,1,21,1,23,1,25,1,27,1,       3P      2
29,1,31,1,33,1,35,1,37,1,39,1,41,1,43,1;                               3P      3
510,165,1,1,45;                                                        5P      4
510,167,1,1,47;                                                        7P      5
510,169,1,1,49;                                                        9P      6
510,171,1,1,51;                                                       11P      7
510,173,1,1,53;                                                       13P      8
510,175,1,1,55;                                                       15P      9
510,177,1,1,57;                                                       17P     10
510,179,1,1,59;                                                       19P     11
510,181,1,1,61;                                                       21P     12
510,183,1,1,63;                                                       23P     13
510,185,1,1,65;                                                       25P     14
510,187,1,1,67;                                                       27P     15
510,189,1,1,69;                                                       29P     16
510,191,1,1,71;                                                       31P     17
510,193,1,1,73;                                                       33P     18
510,195,1,1,75;                                                       35P     19
510,197,1,1,77;                                                       37P     20
510,199,1,1,79;                                                       39P     21
510,201,1,1,81;                                                       41P     22
510,203,1,1,83;                                                       43P     23
508,5,0,207,1,1,0,0,207,2,1,0,0,207,3,1,0,0,207,4,1,0,0,207,5,1,      45P     24
0;                                                                    45P     25
508,4,0,207,6,1,0,0,207,7,1,0,0,207,8,1,0,0,207,3,0,0;                47P     26
508,4,0,207,9,1,0,0,207,7,0,0,0,207,10,1,0,0,207,11,1,0;              49P     27
508,5,0,207,12,1,0,0,207,11,0,0,0,207,13,1,0,0,207,14,1,0,0,207,      51P     28
5,0,0;                                                                51P     29
508,4,0,207,10,0,0,0,207,15,1,0,0,207,16,0,0,0,207,17,0,0;            53P     30
508,4,0,207,14,0,0,0,207,18,1,0,0,207,19,0,0,0,207,20,1,0;            55P     31
508,4,0,207,6,0,0,0,207,21,1,0,0,207,22,0,0,0,207,15,0,0;             57P     32
508,4,0,207,2,0,0,0,207,23,1,0,0,207,24,0,0,0,207,21,0,0;             59P     33
508,4,0,207,4,0,0,0,207,8,0,0,0,207,9,0,0,0,207,12,0,0;               61P     34
508,5,0,207,25,1,0,0,207,26,1,0,0,207,24,1,0,0,207,27,1,0,0,207,      63P     35
28,1,0;                                                               63P     36
508,4,0,207,29,1,0,0,207,30,1,0,0,207,22,1,0,0,207,26,0,0;            65P     37
508,4,0,207,16,1,0,0,207,30,0,0,0,207,31,1,0,0,207,32,1,0;            67P     38
508,5,0,207,19,1,0,0,207,33,1,0,0,207,32,0,0,0,207,34,1,0,0,207,      69P     39
28,0,0;                                                               69P     40
508,4,0,207,13,0,0,0,207,17,1,0,0,207,33,0,0,0,207,35,1,0;            71P     41
508,4,0,207,25,0,0,0,207,34,0,0,0,207,31,0,0,0,207,29,0,0;            73P     42
508,5,0,207,35,0,0,0,207,36,1,0,0,207,37,1,0,0,207,36,0,0,0,207,      75P     43
18,0,0;                                                               75P     44
508,1,0,207,37,0,0;                                                   77P     45
508,5,0,207,38,0,0,0,207,39,1,0,0,207,40,0,0,0,207,23,0,0,0,207,      79P     46
39,0,0;                                                               79P     47
508,1,0,207,38,1,0;                                                   81P     48
508,4,0,207,1,0,0,0,207,20,0,0,0,207,27,0,0,0,207,40,1,0;             83P     49
126,1,1,0,0,1,0,-42.5,-42.5,2.5,2.5,1.,1.,24.9999999999998,           85P     50
-50.0000000000001,450.,25.,-50.,0.,-42.5,2.5,0.,0.,0.;                85P     51
126,1,1,0,0,1,0,2.5,2.5,7.5,7.5,1.,1.,25.,-50.,0.,25.,-50.,-50.,      87P     52
2.5,7.5,0.,0.,0.;                                                     87P     53
126,2,2,0,0,0,0,1.77635683940025D-16,1.77635683940025D-16,            89P     54
1.77635683940025D-16,1.5707963267949,1.5707963267949,                 89P     55
1.5707963267949,1.,0.707106781186548,1.,25.,-50.,-50.,50.,-50.,       89P     56
-50.,50.,-25.,-25.,1.77635683940025D-16,1.5707963267949,0.,0.,        89P     57
0.;                                                                   89P     58
126,1,1,0,0,1,0,-5.,-5.,40.,40.,1.,1.,50.,-25.,-25.,                  91P     59
49.9999999999998,-25.0000000000001,425.,-5.,40.,0.,0.,0.;             91P     60
126,2,2,0,0,0,0,1.5707963267949,1.5707963267949,1.5707963267949,      93P     61
3.14159265358979,3.14159265358979,3.14159265358979,1.,                93P     62
0.707106781186548,1.,49.9999999999998,-25.0000000000001,425.,         93P     63
49.9999999999997,-50.0000000000001,450.,24.9999999999997,             93P     64
-50.0000000000001,450.,1.5707963267949,3.14159265358979,0.,0.,        93P     65
0.;                                                                   93P     66
126,1,1,0,0,1,0,0.,0.,10.,10.,1.,1.,25.,-50.,-50.,25.,50.,-50.,       95P     67
0.,10.,0.,0.,0.;                                                      95P     68
126,2,2,0,0,0,0,-3.14159265358979,-3.14159265358979,                  97P     69
-3.14159265358979,-1.5707963267949,-1.5707963267949,                  97P     70
-1.5707963267949,1.,0.707106781186546,1.,25.,50.,-50.,                97P     71
50.0000000000001,50.,-50.,50.,25.,-25.,-3.14159265358979,             97P     72
-1.5707963267949,0.,0.,0.;                                            97P     73
126,1,1,0,0,1,0,-7.5,-7.5,-2.5,-2.5,1.,1.,50.,25.,-25.,50.,-25.,      99P     74
-25.,-7.5,-2.5,0.,0.,0.;                                              99P     75
126,1,1,0,0,1,0,-40.,-40.,5.,5.,1.,1.,49.9999999999998,              101P     76
24.9999999999999,425.,50.,25.,-25.,-40.,5.,0.,0.,0.;                 101P     77
126,1,1,0,0,1,0,-7.5,-7.5,42.5,42.5,1.,1.,25.,50.,-50.,              103P     78
24.9999999999998,49.9999999999999,450.,-7.5,42.5,0.,0.,0.;           103P     79
126,2,2,0,0,0,0,-3.14159265358979,-3.14159265358979,                 105P     80
-3.14159265358979,-1.5707963267949,-1.5707963267949,                 105P     81
-1.5707963267949,1.,0.707106781186547,1.,24.9999999999998,           105P     82
49.9999999999999,450.,49.9999999999998,49.9999999999999,450.,        105P     83
49.9999999999998,24.9999999999999,425.,-3.14159265358979,            105P     84
-1.5707963267949,0.,0.,0.;                                           105P     85
126,1,1,0,0,1,0,2.5,2.5,7.5,7.5,1.,1.,49.9999999999997,              107P     86
-25.0000000000001,425.,49.9999999999998,24.9999999999999,425.,       107P     87
2.5,7.5,0.,0.,0.;                                                    107P     88
126,1,1,0,0,1,0,-10.,-10.,-5.,-5.,1.,1.,24.9999999999998,            109P     89
49.9999999999999,450.,24.9999999999998,-9.76996261670138D-14,        109P     90
450.,-10.,-5.,0.,0.,0.;                                              109P     91
126,1,1,0,0,1,0,-5.,-5.,0.,0.,1.,1.,24.9999999999998,                111P     92
-9.76996261670138D-14,450.,24.9999999999998,-50.0000000000001,       111P     93
450.,-5.,0.,0.,0.,0.;                                                111P     94
126,1,1,0,0,1,0,2.5,2.5,7.5,7.5,1.,1.,25.0000000000001,50.,-50.,     113P     95
-24.9999999999999,50.,-50.,2.5,7.5,0.,0.,0.;                         113P     96
126,1,1,0,0,1,0,-47.5,-47.5,2.5,2.5,1.,1.,-25.0000000000003,         115P     97
49.9999999999999,450.,-25.,50.,-50.,-47.5,2.5,0.,0.,0.;              115P     98
126,1,1,0,0,1,0,-7.5,-7.5,-2.5,-2.5,1.,1.,24.9999999999998,          117P     99
49.9999999999999,450.,-25.0000000000002,49.9999999999999,450.,       117P    100
-7.5,-2.5,0.,0.,0.;                                                  117P    101
126,4,2,0,0,0,0,0.,0.,0.,1.5707963267949,1.5707963267949,            119P    102
3.14159265358979,3.14159265358979,3.14159265358979,1.,               119P    103
0.707106781186548,1.,0.707106781186548,1.,24.9999999999998,          119P    104
-1.02981689214132D-13,450.,24.9999999999997,-25.0000000000001,       119P    105
450.,-2.51890728299474D-13,-25.0000000000001,450.,                   119P    106
-25.0000000000002,-25.0000000000001,450.,-25.0000000000002,          119P    107
-9.99200722162641D-14,450.,0.,3.14159265358979,0.,0.,0.;             119P    108
126,1,1,0,0,1,0,0.,0.,5.,5.,1.,1.,-25.0000000000002,                 121P    109
-50.0000000000001,450.,-25.0000000000002,-9.76996261670138D-14,      121P    110
450.,0.,5.,0.,0.,0.;                                                 121P    111
126,1,1,0,0,1,0,2.5,2.5,7.5,7.5,1.,1.,-25.0000000000003,             123P    112
-50.0000000000001,450.,24.9999999999997,-50.0000000000001,450.,      123P    113
2.5,7.5,0.,0.,0.;                                                    123P    114
126,1,1,0,0,1,0,2.5,2.5,7.5,7.5,1.,1.,25.,-50.,-50.,-25.,-50.,       125P    115
-50.,2.5,7.5,0.,0.,0.;                                               125P    116
126,1,1,0,0,1,0,-10.,-10.,0.,0.,1.,1.,-25.,50.,-50.,-25.,-50.,       127P    117
-50.,-10.,0.,0.,0.,0.;                                               127P    118
126,4,2,0,0,0,0,-3.14159265358979,-3.14159265358979,                 129P    119
-3.14159265358979,-1.5707963267949,-1.5707963267949,0.,0.,0.,1.,     129P    120
0.707106781186547,1.,0.707106781186548,1.,25.,-50.,                  129P    121
-4.58933059361964D-15,25.,-50.,-25.,1.10991353430686D-14,-50.,       129P    122
-25.,-25.,-50.,-25.,-25.,-50.,-2.98554080839911D-14,                 129P    123
-3.14159265358979,0.,0.,0.,0.;                                       129P    124
126,1,1,0,0,1,0,-2.5,-2.5,2.5,2.5,1.,1.,-25.,-50.,-50.,-25.,         131P    125
-50.,-2.66453525910038D-14,-2.5,2.5,0.,0.,0.;                        131P    126
126,1,1,0,0,1,0,-45.,-45.,0.,0.,1.,1.,-50.0000000000002,             133P    127
-25.0000000000001,425.,-50.,-25.,-25.,-45.,0.,0.,0.,0.;              133P    128
126,2,2,0,0,0,0,-1.5707963267949,-1.5707963267949,                   135P    129
-1.5707963267949,0.,0.,0.,1.,0.707106781186547,1.,-50.,-25.,         135P    130
-25.,-50.,-50.,-50.0000000000001,-25.,-50.,-50.,                     135P    131
-1.5707963267949,0.,0.,0.,0.;                                        135P    132
126,1,1,0,0,1,0,2.5,2.5,47.5,47.5,1.,1.,-25.,-50.,                   137P    133
-2.66453525910038D-14,-25.0000000000003,-50.0000000000001,450.,      137P    134
2.5,47.5,0.,0.,0.;                                                   137P    135
126,2,2,0,0,0,0,-3.14159265358979,-3.14159265358979,                 139P    136
-3.14159265358979,-1.5707963267949,-1.5707963267949,                 139P    137
-1.5707963267949,1.,0.707106781186547,1.,-25.0000000000003,          139P    138
-50.0000000000001,450.,-50.0000000000003,-50.0000000000001,450.,     139P    139
-50.0000000000002,-25.0000000000001,425.,-3.14159265358979,          139P    140
-1.5707963267949,0.,0.,0.;                                           139P    141
126,1,1,0,0,1,0,2.5,2.5,7.5,7.5,1.,1.,-50.,-25.,-25.,-50.,25.,       141P    142
-25.,2.5,7.5,0.,0.,0.;                                               141P    143
126,2,2,0,0,0,0,1.5707963267949,1.5707963267949,1.5707963267949,     143P    144
3.14159265358979,3.14159265358979,3.14159265358979,1.,               143P    145
0.707106781186548,1.,-50.,25.,-25.,-50.,50.,-50.,-25.,50.,-50.,      143P    146
1.5707963267949,3.14159265358979,0.,0.,0.;                           143P    147
126,1,1,0,0,1,0,-4.44089209850063D-16,-4.44089209850063D-16,45.,     145P    148
45.,1.,1.,-50.,25.,-25.,-50.0000000000002,24.9999999999999,425.,     145P    149
-4.44089209850063D-16,45.,0.,0.,0.;                                  145P    150
126,2,2,0,0,0,0,1.5707963267949,1.5707963267949,1.5707963267949,     147P    151
3.14159265358979,3.14159265358979,3.14159265358979,1.,               147P    152
0.707106781186548,1.,-50.0000000000002,24.9999999999999,425.,        147P    153
-50.0000000000002,49.9999999999999,450.,-25.0000000000002,           147P    154
49.9999999999999,450.,1.5707963267949,3.14159265358979,0.,0.,0.;     147P    155
126,1,1,0,0,1,0,5.,5.,10.,10.,1.,1.,-25.0000000000002,               149P    156
-9.76996261670138D-14,450.,-25.0000000000002,49.9999999999999,       149P    157
450.,5.,10.,0.,0.,0.;                                                149P    158
126,1,1,0,0,1,0,-7.5,-7.5,-2.5,-2.5,1.,1.,-50.0000000000002,         151P    159
24.9999999999999,425.,-50.0000000000003,-25.0000000000001,425.,      151P    160
-7.5,-2.5,0.,0.,0.;                                                  151P    161
126,4,2,0,0,0,0,-3.14159265358979,-3.14159265358979,                 153P    162
-3.14159265358979,-1.5707963267949,-1.5707963267949,0.,0.,0.,1.,     153P    163
0.707106781186547,1.,0.707106781186547,1.,-25.0000000000002,         153P    164
-9.37968382205273D-14,450.,-25.0000000000002,24.9999999999999,       153P    165
450.,-2.45767494303737D-13,24.9999999999999,450.,                    153P    166
24.9999999999998,24.9999999999999,450.,24.9999999999998,             153P    167
-1.02981689214132D-13,450.,-3.14159265358979,0.,0.,0.,0.;            153P    168
126,1,1,0,0,1,0,-5.66553889764798D-16,-5.66553889764798D-16,2.4,     155P    169
2.4,1.,1.,-25.0000000000002,-9.68584552183957D-14,450.,              155P    170
-25.0000000000002,-8.35357789228938D-14,390.,                        155P    171
-5.66553889764798D-16,2.4,0.,0.,0.;                                  155P    172
126,8,2,0,1,0,0,-3.14159265358979,-3.14159265358979,                 157P    173
-3.14159265358979,-1.5707963267949,-1.5707963267949,0.,0.,           157P    174
1.5707963267949,1.5707963267949,3.14159265358979,                    157P    175
3.14159265358979,3.14159265358979,1.,0.707106781186547,1.,           157P    176
0.707106781186548,1.,0.707106781186548,1.,0.707106781186547,1.,      157P    177
-25.0000000000002,-8.04741619250254D-14,390.,-25.0000000000002,      157P    178
24.9999999999999,390.,-2.11774260917849D-13,24.9999999999999,        157P    179
390.,24.9999999999998,24.9999999999999,390.,24.9999999999998,        157P    180
-8.96590129186306D-14,390.,24.9999999999998,-25.0000000000001,       157P    181
390.,-2.17897494913586D-13,-25.0000000000001,390.,                   157P    182
-25.0000000000002,-25.0000000000001,390.,-25.0000000000002,          157P    183
-8.65973959207622D-14,390.,-3.14159265358979,3.14159265358979,       157P    184
0.,0.,0.;                                                            157P    185
126,8,2,0,1,0,0,-3.14159265358979,-3.14159265358979,                 159P    186
-3.14159265358979,-1.5707963267949,-1.5707963267949,0.,0.,           159P    187
1.5707963267949,1.5707963267949,3.14159265358979,                    159P    188
3.14159265358979,3.14159265358979,1.,0.707106781186548,1.,           159P    189
0.707106781186548,1.,0.707106781186548,1.,0.707106781186548,1.,      159P    190
25.,-110.,-1.17887728933848D-14,25.,-110.,25.,                       159P    191
-2.45764399400554D-14,-110.,25.,-25.,-110.,25.,-25.,-110.,           159P    192
-4.3178084379493D-14,-25.,-110.,-25.,3.75125454818451D-15,-110.,     159P    193
-25.,25.,-110.,-25.,25.,-110.,-1.79120068891215D-14,                 159P    194
-3.14159265358979,3.14159265358979,0.,0.,0.;                         159P    195
126,1,1,0,0,1,0,-2.4,-2.4,1.33226762955019D-16,                      161P    196
1.33226762955019D-16,1.,1.,25.,-110.,-1.48503898912531D-14,25.,      161P    197
-50.,-1.52771359575126D-15,-2.4,1.33226762955019D-16,0.,0.,0.;       161P    198
126,4,2,0,0,0,0,-6.28318530717959,-6.28318530717959,                 163P    199
-6.28318530717959,-4.71238898038469,-4.71238898038469,               163P    200
-3.14159265358979,-3.14159265358979,-3.14159265358979,1.,            163P    201
0.707106781186548,1.,0.707106781186548,1.,-25.,-50.,                 163P    202
-2.37321740882544D-14,-25.,-50.,25.,-1.11053251494345D-14,-50.,      163P    203
25.,25.,-50.,25.,25.,-50.,-4.58933059361964D-15,                     163P    204
-6.28318530717959,-3.14159265358979,0.,0.,0.;                        163P    205
128,1,2,1,2,0,0,0,0,0,-3.,-3.,17.,17.,-0.785398163397448,            165P    206
-0.785398163397448,-0.785398163397448,0.785398163397449,             165P    207
0.785398163397449,0.785398163397449,1.,1.,0.707106781186547,         165P    208
0.707106781186547,1.,1.,24.9999999999997,-50.0000000000001,450.,     165P    209
25.,-50.,-50.,49.9999999999998,-50.0000000000001,450.,50.,-50.,      165P    210
-50.,49.9999999999998,-25.0000000000001,450.,50.,-25.,-50.,-3.,      165P    211
17.,-0.785398163397448,0.785398163397449;                            165P    212
128,1,2,1,2,0,0,0,0,0,-2.22044604925031D-16,                         167P    213
-2.22044604925031D-16,4.,4.,-0.785398163397448,                      167P    214
-0.785398163397448,-0.785398163397448,0.785398163397449,             167P    215
0.785398163397449,0.785398163397449,1.,1.,0.707106781186547,         167P    216
0.707106781186547,1.,1.,50.,50.,-25.,50.,-50.,-25.,50.,50.,-50.,     167P    217
50.,-50.,-50.,25.,50.,-50.,25.,-50.,-50.,-2.22044604925031D-16,      167P    218
4.,-0.785398163397448,0.785398163397449;                             167P    219
128,1,2,1,2,0,0,0,0,0,-3.,-3.,17.,17.,-0.785398163397449,            169P    220
-0.785398163397449,-0.785398163397449,0.785398163397449,             169P    221
0.785398163397449,0.785398163397449,1.,1.,0.707106781186547,         169P    222
0.707106781186547,1.,1.,49.9999999999998,24.9999999999999,450.,      169P    223
50.,25.,-50.,49.9999999999998,49.9999999999999,450.,                 169P    224
50.0000000000001,50.,-50.,24.9999999999998,49.9999999999999,         169P    225
450.,25.,50.,-50.,-3.,17.,-0.785398163397449,0.785398163397449;      169P    226
128,1,2,1,2,0,0,0,0,0,-4.88498130835069D-16,                         171P    227
-4.88498130835069D-16,4.,4.,-0.785398163397449,                      171P    228
-0.785398163397449,-0.785398163397449,0.78539816339745,              171P    229
0.78539816339745,0.78539816339745,1.,1.,0.707106781186547,           171P    230
0.707106781186547,1.,1.,24.9999999999998,49.9999999999999,450.,      171P    231
24.9999999999998,-50.0000000000001,450.,49.9999999999998,            171P    232
49.9999999999999,450.,49.9999999999998,-50.0000000000001,450.,       171P    233
49.9999999999998,49.9999999999999,425.,49.9999999999998,             171P    234
-50.0000000000001,425.,-4.88498130835069D-16,4.,                     171P    235
-0.785398163397449,0.78539816339745;                                 171P    236
128,1,1,1,1,0,0,1,0,0,-2.501,-2.501,2.501,2.501,-5.001,-5.001,       173P    237
45.001,45.001,1.,1.,1.,1.,25.0100000000001,50.,-50.01,-25.01,        173P    238
50.,-50.01,25.0099999999998,49.9999999999999,450.01,                 173P    239
-25.0100000000003,49.9999999999999,450.01,-2.501,2.501,-5.001,       173P    240
45.001;                                                              173P    241
128,1,1,1,1,0,0,1,0,0,-0.00100000000000058,-0.00100000000000058,     175P    242
5.001,5.001,-7.501,-7.501,-2.499,-2.499,1.,1.,1.,1.,                 175P    243
25.0099999999998,-50.0100000000001,450.,25.0099999999998,            175P    244
0.00999999999991422,450.,-25.0100000000003,-50.0100000000001,        175P    245
450.,-25.0100000000003,0.0099999999999234,450.,                      175P    246
-0.00100000000000058,5.001,-7.501,-2.499;                            175P    247
128,1,1,1,1,0,0,1,0,0,2.499,2.499,7.501,7.501,                       177P    248
-0.00100000000000089,-0.00100000000000089,10.001,10.001,1.,1.,       177P    249
1.,1.,25.01,-50.01,-50.,-25.01,-50.01,-50.,25.0100000000001,         177P    250
50.01,-50.,-25.01,50.01,-50.,2.499,7.501,-0.00100000000000089,       177P    251
10.001;                                                              177P    252
128,1,1,1,1,0,0,1,0,0,-2.501,-2.501,2.501,2.501,-5.001,-5.001,       179P    253
0.0010000000000006,0.0010000000000006,1.,1.,1.,1.,-25.01,-50.,       179P    254
-50.01,25.01,-50.,-50.01,-25.01,-50.,0.00999999999997669,25.01,      179P    255
-50.,0.0100000000000044,-2.501,2.501,-5.001,0.0010000000000006;      179P    256
128,1,1,1,1,0,0,1,0,0,-37.501,-37.501,7.501,7.501,2.499,2.499,       181P    257
7.501,7.501,1.,1.,1.,1.,49.9999999999998,-25.0100000000001,          181P    258
425.01,50.,-25.01,-25.01,49.9999999999998,25.0099999999999,          181P    259
425.01,50.,25.01,-25.01,-37.501,7.501,2.499,7.501;                   181P    260
128,1,2,1,2,0,0,0,0,0,-1.,-1.,19.,19.,-0.785398163397448,            183P    261
-0.785398163397448,-0.785398163397448,0.785398163397449,             183P    262
0.785398163397449,0.785398163397449,1.,1.,0.707106781186547,         183P    263
0.707106781186547,1.,1.,-50.0000000000002,-25.0000000000001,         183P    264
450.,-50.,-25.,-50.,-50.0000000000003,-50.0000000000001,450.,        183P    265
-50.,-50.,-50.0000000000001,-25.0000000000002,-50.0000000000001,     183P    266
450.,-25.,-50.,-50.,-1.,19.,-0.785398163397448,                      183P    267
0.785398163397449;                                                   183P    268
128,1,2,1,2,0,0,0,0,0,-2.22044604925031D-16,                         185P    269
-2.22044604925031D-16,4.,4.,-0.785398163397448,                      185P    270
-0.785398163397448,-0.785398163397448,0.785398163397449,             185P    271
0.785398163397449,0.785398163397449,1.,1.,0.707106781186547,         185P    272
0.707106781186547,1.,1.,-25.,50.,-50.,-25.,-50.,-50.,-50.,50.,       185P    273
-50.,-50.,-50.,-50.0000000000001,-50.,50.,-25.,-50.,-50.,-25.,       185P    274
-2.22044604925031D-16,4.,-0.785398163397448,0.785398163397449;       185P    275
128,1,2,1,2,0,0,0,0,0,-1.,-1.,19.,19.,-0.785398163397448,            187P    276
-0.785398163397448,-0.785398163397448,0.785398163397449,             187P    277
0.785398163397449,0.785398163397449,1.,1.,0.707106781186547,         187P    278
0.707106781186547,1.,1.,-25.0000000000002,49.9999999999999,450.,     187P    279
-24.9999999999999,50.,-50.,-50.0000000000002,49.9999999999999,       187P    280
450.,-49.9999999999999,50.,-50.,-50.0000000000002,                   187P    281
24.9999999999999,450.,-50.,25.,-50.,-1.,19.,-0.785398163397448,      187P    282
0.785398163397449;                                                   187P    283
128,1,2,1,2,0,0,0,0,0,-4.,-4.,-4.44089209850063D-16,                 189P    284
-4.44089209850063D-16,-0.785398163397449,-0.785398163397449,         189P    285
-0.785398163397449,0.785398163397448,0.785398163397448,              189P    286
0.785398163397448,1.,1.,0.707106781186547,0.707106781186547,1.,      189P    287
1.,-25.0000000000002,-50.0000000000001,450.,-25.0000000000002,       189P    288
49.9999999999999,450.,-50.0000000000003,-50.0000000000001,450.,      189P    289
-50.0000000000002,49.9999999999999,450.,-50.0000000000002,           189P    290
-50.0000000000001,425.,-50.0000000000002,49.9999999999999,425.,      189P    291
-4.,-4.44089209850063D-16,-0.785398163397449,0.785398163397448;      189P    292
128,1,1,1,1,0,0,1,0,0,4.999,4.999,10.001,10.001,-7.501,-7.501,       191P    293
-2.499,-2.499,1.,1.,1.,1.,25.0099999999998,-0.0100000000001102,      191P    294
450.,25.0099999999998,50.0099999999999,450.,-25.0100000000003,       191P    295
-0.0100000000001041,450.,-25.0100000000003,50.0099999999999,         191P    296
450.,4.999,10.001,-7.501,-2.499;                                     191P    297
128,1,1,1,1,0,0,1,0,0,2.499,2.499,47.501,47.501,2.499,2.499,         193P    298
7.501,7.501,1.,1.,1.,1.,-50.,-25.01,-25.01,-50.0000000000002,        193P    299
-25.0100000000001,425.01,-50.,25.01,-25.01,-50.0000000000002,        193P    300
25.0099999999999,425.01,2.499,47.501,2.499,7.501;                    193P    301
128,1,8,1,2,0,1,0,0,1,-5.66553889764798D-16,                         195P    302
-5.66553889764798D-16,2.4,2.4,-3.14159265358979,                     195P    303
-3.14159265358979,-3.14159265358979,-1.5707963267949,                195P    304
-1.5707963267949,0.,0.,1.5707963267949,1.5707963267949,              195P    305
3.14159265358979,3.14159265358979,3.14159265358979,1.,1.,            195P    306
0.707106781186548,0.707106781186548,1.,1.,0.707106781186548,         195P    307
0.707106781186548,1.,1.,0.707106781186548,0.707106781186548,1.,      195P    308
1.,0.707106781186548,0.707106781186548,1.,1.,-25.0000000000002,      195P    309
-9.68584552183957D-14,450.,-25.0000000000002,                        195P    310
-8.35357789228938D-14,390.,-25.0000000000002,24.9999999999999,       195P    311
450.,-25.0000000000002,24.9999999999999,390.,                        195P    312
-2.47298302802671D-13,24.9999999999999,450.,                         195P    313
-2.13305069416783D-13,24.9999999999999,390.,24.9999999999997,        195P    314
24.9999999999999,450.,24.9999999999998,24.9999999999999,390.,        195P    315
24.9999999999998,-1.02981689214132D-13,450.,24.9999999999998,        195P    316
-8.96590129186306D-14,390.,24.9999999999997,-25.0000000000001,       195P    317
450.,24.9999999999998,-25.0000000000001,390.,                        195P    318
-2.53421536798408D-13,-25.0000000000001,450.,                        195P    319
-2.1942830341252D-13,-25.0000000000001,390.,-25.0000000000002,       195P    320
-25.0000000000001,450.,-25.0000000000002,-25.0000000000001,390.,     195P    321
-25.0000000000002,-9.68584552183957D-14,450.,-25.0000000000002,      195P    322
-8.35357789228938D-14,390.,-5.66553889764798D-16,2.4,                195P    323
-3.14159265358979,3.14159265358979;                                  195P    324
128,1,1,1,1,0,0,1,0,0,-2.501,-2.501,2.501,2.501,-2.501,-2.501,       197P    325
2.501,2.501,1.,1.,1.,1.,-25.0100000000002,-25.0100000000001,         197P    326
390.,25.0099999999998,-25.0100000000001,390.,-25.0100000000002,      197P    327
25.0099999999999,390.,25.0099999999998,25.0099999999999,390.,        197P    328
-2.501,2.501,-2.501,2.501;                                           197P    329
128,1,8,1,2,0,1,0,0,1,-1.33226762955019D-16,                         199P    330
-1.33226762955019D-16,2.4,2.4,-3.14159265358979,                     199P    331
-3.14159265358979,-3.14159265358979,-1.5707963267949,                199P    332
-1.5707963267949,0.,0.,1.5707963267949,1.5707963267949,              199P    333
3.14159265358979,3.14159265358979,3.14159265358979,1.,1.,            199P    334
0.707106781186548,0.707106781186548,1.,1.,0.707106781186548,         199P    335
0.707106781186548,1.,1.,0.707106781186548,0.707106781186548,1.,      199P    336
1.,0.707106781186548,0.707106781186548,1.,1.,25.,-110.,              199P    337
-1.48503898912531D-14,25.,-50.,-1.52771359575126D-15,25.,-110.,      199P    338
25.,25.,-50.,25.,-2.30456314411212D-14,-110.,25.,                    199P    339
-1.56977506462371D-14,-50.,25.,-25.,-110.,25.,-25.,-50.,25.,         199P    340
-25.,-110.,-4.3178084379493D-14,-25.,-50.,-2.98554080839911D-14,     199P    341
-25.,-110.,-25.,-25.,-50.,-25.,5.28206304711869D-15,-110.,-25.,      199P    342
1.26299438420028D-14,-50.,-25.,25.,-110.,-25.,25.,-50.,-25.,25.,     199P    343
-110.,-1.48503898912531D-14,25.,-50.,-1.52771359575126D-15,          199P    344
-1.33226762955019D-16,2.4,-3.14159265358979,3.14159265358979;        199P    345
128,1,1,1,1,0,0,1,0,0,-2.501,-2.501,2.501,2.501,-2.501,-2.501,       201P    346
2.501,2.501,1.,1.,1.,1.,-25.01,-110.,-25.01,25.01,-110.,-25.01,      201P    347
-25.01,-110.,25.01,25.01,-110.,25.01,-2.501,2.501,-2.501,2.501;      201P    348
128,1,1,1,1,0,0,1,0,0,-2.501,-2.501,2.501,2.501,                     203P    349
-0.00100000000000031,-0.00100000000000031,45.001,45.001,1.,1.,       203P    350
1.,1.,-25.01,-50.,-0.0100000000000329,25.01,-50.,                    203P    351
-0.0100000000000046,-25.0100000000003,-50.0000000000001,450.01,      203P    352
25.0099999999997,-50.0000000000001,450.01,-2.501,2.501,              203P    353
-0.00100000000000031,45.001;                                         203P    354
502,22,24.9999999999998,-50.0000000000001,450.,25.,-50.,             205P    355
-1.52771359575125D-15,25.,-50.,-50.,50.,-25.,-25.,                   205P    356
49.9999999999998,-25.0000000000001,425.,25.,50.,-50.,50.,25.,        205P    357
-25.,49.9999999999998,24.9999999999999,425.,24.9999999999998,        205P    358
49.9999999999999,450.,24.9999999999998,-1.02981689214132D-13,        205P    359
450.,-25.,50.,-50.,-25.0000000000002,49.9999999999999,450.,          205P    360
-25.0000000000002,-9.68584552183957D-14,450.,-25.0000000000002,      205P    361
-50.0000000000001,450.,-25.,-50.,-50.,-25.,-50.,                     205P    362
-2.98554080839911D-14,-50.0000000000002,-25.0000000000001,425.,      205P    363
-50.,-25.,-25.,-50.,25.,-25.,-50.0000000000002,24.9999999999999,     205P    364
425.,-25.0000000000002,-8.35357789228938D-14,390.,25.,-110.,         205P    365
-1.79120068891215D-14;                                               205P    366
504,40,85,205,1,205,2,87,205,2,205,3,89,205,3,205,4,91,205,4,        207P    367
205,5,93,205,5,205,1,95,205,3,205,6,97,205,6,205,7,99,205,7,205,     207P    368
4,101,205,8,205,7,103,205,6,205,9,105,205,9,205,8,107,205,5,205,     207P    369
8,109,205,9,205,10,111,205,10,205,1,113,205,6,205,11,115,205,12,     207P    370
205,11,117,205,9,205,12,119,205,10,205,13,121,205,14,205,13,123,     207P    371
205,14,205,1,125,205,3,205,15,127,205,11,205,15,129,205,2,205,       207P    372
16,131,205,15,205,16,133,205,17,205,18,135,205,18,205,15,137,        207P    373
205,16,205,14,139,205,14,205,17,141,205,18,205,19,143,205,19,        207P    374
205,11,145,205,19,205,20,147,205,20,205,12,149,205,13,205,12,        207P    375
151,205,20,205,17,153,205,13,205,10,155,205,13,205,21,157,205,       207P    376
21,205,21,159,205,22,205,22,161,205,22,205,2,163,205,16,205,2;       207P    377
406,1,5HBody1;                                                       209P    378
314,76.8627450980392,20.7843137254902,15.2941176470588,22HPaint      211P    379
- Metallic (Red);                                                    211P    380
314,62.7450980392157,62.7450980392157,62.7450980392157,13HSteel      213P    381
- Satin;                                                             213P    382
S      1G      3D    214P    382                                        T      1
