                                                                        S      1
,,6HJoint2,6HJoint2,7Hunknown,7Hunknown,32,38,7,99,15,,1.,2,2HMM,1,0.08,G      1
15H20180927.234912,0.01,10000.,15Hharis.jasarevic,7Hunknown,11,0,15H2018G      2
0927.213606;                                                            G      3
     186       1                                                00000000D      1
     186            -233       1       0                               0D      2
     514       2                                                00010000D      3
     514                       2       1                               0D      4
     510       4                                                00010000D      5
     510            -233       1       1                               0D      6
     510       5                                                00010000D      7
     510            -233       1       1                               0D      8
     510       6                                                00010000D      9
     510            -233       1       1                               0D     10
     510       7                                                00010000D     11
     510            -233       1       1                               0D     12
     510       8                                                00010000D     13
     510            -233       1       1                               0D     14
     510       9                                                00010000D     15
     510            -233       1       1                               0D     16
     510      10                                                00010000D     17
     510            -233       1       1                               0D     18
     510      11                                                00010000D     19
     510            -233       1       1                               0D     20
     510      12                                                00010000D     21
     510            -233       1       1                               0D     22
     510      13                                                00010000D     23
     510            -233       1       1                               0D     24
     510      14                                                00010000D     25
     510            -233       1       1                               0D     26
     510      15                                                00010000D     27
     510            -233       1       1                               0D     28
     510      16                                                00010000D     29
     510            -233       1       1                               0D     30
     510      17                                                00010000D     31
     510            -233       1       1                               0D     32
     510      18                                                00010000D     33
     510            -233       1       1                               0D     34
     510      19                                                00010000D     35
     510            -233       1       1                               0D     36
     510      20                                                00010000D     37
     510            -233       1       1                               0D     38
     510      21                                                00010000D     39
     510            -233       1       1                               0D     40
     510      22                                                00010000D     41
     510            -233       1       1                               0D     42
     510      23                                                00010000D     43
     510            -233       1       1                               0D     44
     510      24                                                00010000D     45
     510            -233       1       1                               0D     46
     508      25                                                00010000D     47
     508                       1       1                               0D     48
     508      26                                                00010000D     49
     508                       2       1                               0D     50
     508      28                                                00010000D     51
     508                       1       1                               0D     52
     508      29                                                00010000D     53
     508                       1       1                               0D     54
     508      30                                                00010000D     55
     508                       1       1                               0D     56
     508      31                                                00010000D     57
     508                       2       1                               0D     58
     508      33                                                00010000D     59
     508                       1       1                               0D     60
     508      34                                                00010000D     61
     508                       1       1                               0D     62
     508      35                                                00010000D     63
     508                       1       1                               0D     64
     508      36                                                00010000D     65
     508                       1       1                               0D     66
     508      37                                                00010000D     67
     508                       2       1                               0D     68
     508      39                                                00010000D     69
     508                       1       1                               0D     70
     508      40                                                00010000D     71
     508                       1       1                               0D     72
     508      41                                                00010000D     73
     508                       1       1                               0D     74
     508      42                                                00010000D     75
     508                       2       1                               0D     76
     508      44                                                00010000D     77
     508                       2       1                               0D     78
     508      46                                                00010000D     79
     508                       1       1                               0D     80
     508      47                                                00010000D     81
     508                       1       1                               0D     82
     508      48                                                00010000D     83
     508                       1       1                               0D     84
     508      49                                                00010000D     85
     508                       1       1                               0D     86
     508      50                                                00010000D     87
     508                       2       1                               0D     88
     508      52                                                00010000D     89
     508                       2       1                               0D     90
     126      54                                                00010000D     91
     126       0               2       0                               0D     92
     126      56                                                00010000D     93
     126       0               5       0                               0D     94
     126      61                                                00010000D     95
     126       0               2       0                               0D     96
     126      63                                                00010000D     97
     126       0               5       0                               0D     98
     126      68                                                00010000D     99
     126       0               2       0                               0D    100
     126      70                                                00010000D    101
     126       0               6       0                               0D    102
     126      76                                                00010000D    103
     126       0               2       0                               0D    104
     126      78                                                00010000D    105
     126       0               2       0                               0D    106
     126      80                                                00010000D    107
     126       0               2       0                               0D    108
     126      82                                                00010000D    109
     126       0               2       0                               0D    110
     126      84                                                00010000D    111
     126       0               2       0                               0D    112
     126      86                                                00010000D    113
     126       0               2       0                               0D    114
     126      88                                                00010000D    115
     126       0               2       0                               0D    116
     126      90                                                00010000D    117
     126       0               6       0                               0D    118
     126      96                                                00010000D    119
     126       0               6       0                               0D    120
     126     102                                                00010000D    121
     126       0               2       0                               0D    122
     126     104                                                00010000D    123
     126       0               2       0                               0D    124
     126     106                                                00010000D    125
     126       0               6       0                               0D    126
     126     112                                                00010000D    127
     126       0               2       0                               0D    128
     126     114                                                00010000D    129
     126       0               6       0                               0D    130
     126     120                                                00010000D    131
     126       0               2       0                               0D    132
     126     122                                                00010000D    133
     126       0               6       0                               0D    134
     126     128                                                00010000D    135
     126       0               2       0                               0D    136
     126     130                                                00010000D    137
     126       0               2       0                               0D    138
     126     132                                                00010000D    139
     126       0               5       0                               0D    140
     126     137                                                00010000D    141
     126       0               2       0                               0D    142
     126     139                                                00010000D    143
     126       0               5       0                               0D    144
     126     144                                                00010000D    145
     126       0               2       0                               0D    146
     126     146                                                00010000D    147
     126       0               2       0                               0D    148
     126     148                                                00010000D    149
     126       0               3       0                               0D    150
     126     151                                                00010000D    151
     126       0               2       0                               0D    152
     126     153                                                00010000D    153
     126       0               2       0                               0D    154
     126     155                                                00010000D    155
     126       0               4       0                               0D    156
     126     159                                                00010000D    157
     126       0               2       0                               0D    158
     126     161                                                00010000D    159
     126       0               4       0                               0D    160
     126     165                                                00010000D    161
     126       0               2       0                               0D    162
     126     167                                                00010000D    163
     126       0              10       0                               0D    164
     126     177                                                00010000D    165
     126       0               2       0                               0D    166
     126     179                                                00010000D    167
     126       0               5       0                               0D    168
     126     184                                                00010000D    169
     126       0               2       0                               0D    170
     126     186                                                00010000D    171
     126       0               2       0                               0D    172
     126     188                                                00010000D    173
     126       0               2       0                               0D    174
     126     190                                                00010000D    175
     126       0               6       0                               0D    176
     126     196                                                00010000D    177
     126       0               3       0                               0D    178
     126     199                                                00010000D    179
     126       0              11       0                               0D    180
     126     210                                                00010000D    181
     126       0              11       0                               0D    182
     126     221                                                00010000D    183
     126       0               3       0                               0D    184
     128     224                                                00010000D    185
     128       0    -233       7       0                               0D    186
     128     231                                                00010000D    187
     128       0    -233       8       0                               0D    188
     128     239                                                00010000D    189
     128       0    -233       5       0                               0D    190
     128     244                                                00010000D    191
     128       0    -233       5       0                               0D    192
     128     249                                                00010000D    193
     128       0    -233       5       0                               0D    194
     128     254                                                00010000D    195
     128       0    -233       6       0                               0D    196
     128     260                                                00010000D    197
     128       0    -233       8       0                               0D    198
     128     268                                                00010000D    199
     128       0    -233       8       0                               0D    200
     128     276                                                00010000D    201
     128       0    -233       4       0                               0D    202
     128     280                                                00010000D    203
     128       0    -233       4       0                               0D    204
     128     284                                                00010000D    205
     128       0    -233       3       0                               0D    206
     128     287                                                00010000D    207
     128       0    -233       8       0                               0D    208
     128     295                                                00010000D    209
     128       0    -233       7       0                               0D    210
     128     302                                                00010000D    211
     128       0    -233       4       0                               0D    212
     128     306                                                00010000D    213
     128       0    -233       8       0                               0D    214
     128     314                                                00010000D    215
     128       0    -233       7       0                               0D    216
     128     321                                                00010000D    217
     128       0    -233      17       0                               0D    218
     128     338                                                00010000D    219
     128       0    -233       4       0                               0D    220
     128     342                                                00010000D    221
     128       0    -233       4       0                               0D    222
     128     346                                                00010000D    223
     128       0    -233      18       0                               0D    224
     128     364                                                00010000D    225
     128       0    -233       4       0                               0D    226
     502     368                                                00010000D    227
     502                      12       1                               0D    228
     504     380                                                00010001D    229
     504                      14       1                               0D    230
     406     394                                                00000000D    231
     406                       1      15                               0D    232
     314     395                                                00000200D    233
     314                       2       0                               0D    234
186,3,1,0,0,1,231;                                                     1P      1
514,21,5,1,7,1,9,1,11,1,13,1,15,1,17,1,19,1,21,1,23,1,25,1,27,1,       3P      2
29,1,31,1,33,1,35,1,37,1,39,1,41,1,43,1,45,1;                          3P      3
510,185,1,1,47;                                                        5P      4
510,187,1,1,49;                                                        7P      5
510,189,1,1,51;                                                        9P      6
510,191,1,1,53;                                                       11P      7
510,193,1,1,55;                                                       13P      8
510,195,1,1,57;                                                       15P      9
510,197,1,1,59;                                                       17P     10
510,199,1,1,61;                                                       19P     11
510,201,1,1,63;                                                       21P     12
510,203,1,1,65;                                                       23P     13
510,205,2,1,67,69;                                                    25P     14
510,207,1,1,71;                                                       27P     15
510,209,1,1,73;                                                       29P     16
510,211,1,1,75;                                                       31P     17
510,213,1,1,77;                                                       33P     18
510,215,1,1,79;                                                       35P     19
510,217,1,1,81;                                                       37P     20
510,219,1,1,83;                                                       39P     21
510,221,1,1,85;                                                       41P     22
510,223,1,1,87;                                                       43P     23
510,225,1,1,89;                                                       45P     24
508,4,0,229,1,1,0,0,229,2,1,0,0,229,3,1,0,0,229,4,1,0;                47P     25
508,5,0,229,5,1,0,0,229,6,1,0,0,229,7,1,0,0,229,8,1,0,0,229,4,0,      49P     26
0;                                                                    49P     27
508,4,0,229,1,0,0,0,229,9,0,0,0,229,10,0,0,0,229,11,0,0;              51P     28
508,4,0,229,7,0,0,0,229,12,0,0,0,229,13,0,0,0,229,14,1,0;             53P     29
508,4,0,229,8,0,0,0,229,15,1,0,0,229,16,0,0,0,229,9,1,0;              55P     30
508,8,0,229,6,0,0,0,229,17,1,0,0,229,18,0,0,0,229,19,0,0,0,229,       57P     31
20,0,0,0,229,21,0,0,0,229,22,0,0,0,229,12,1,0;                        57P     32
508,4,0,229,23,1,0,0,229,18,1,0,0,229,24,1,0,0,229,25,1,0;            59P     33
508,4,0,229,26,1,0,0,229,27,1,0,0,229,28,1,0,0,229,25,0,0;            61P     34
508,4,0,229,23,0,0,0,229,29,0,0,0,229,30,0,0,0,229,19,1,0;            63P     35
508,4,0,229,28,0,0,0,229,31,0,0,0,229,32,0,0,0,229,29,1,0;            65P     36
508,8,0,229,2,0,0,0,229,11,1,0,0,229,33,0,0,0,229,34,1,0,0,229,       67P     37
35,0,0,0,229,31,1,0,0,229,27,0,0,0,229,36,1,0;                        67P     38
508,1,0,229,37,1,0;                                                   69P     39
508,4,0,229,38,1,0,0,229,20,1,0,0,229,30,1,0,0,229,39,1,0;            71P     40
508,4,0,229,32,1,0,0,229,35,1,0,0,229,40,1,0,0,229,39,0,0;            73P     41
508,6,0,229,38,0,0,0,229,40,0,0,0,229,34,0,0,0,229,41,0,0,0,229,      75P     42
42,0,0,0,229,21,1,0;                                                  75P     43
508,5,0,229,16,1,0,0,229,13,1,0,0,229,22,1,0,0,229,42,1,0,0,229,      77P     44
43,1,0;                                                               77P     45
508,4,0,229,41,1,0,0,229,33,1,0,0,229,10,1,0,0,229,43,0,0;            79P     46
508,4,0,229,37,0,0,0,229,44,1,0,0,229,45,1,0,0,229,44,0,0;            81P     47
508,1,0,229,45,0,0;                                                   83P     48
508,1,0,229,46,1,0;                                                   85P     49
508,5,0,229,46,0,0,0,229,47,1,0,0,229,15,0,0,0,229,14,0,0,0,229,      87P     50
47,0,0;                                                               87P     51
508,6,0,229,3,0,0,0,229,36,0,0,0,229,26,0,0,0,229,24,0,0,0,229,       89P     52
17,0,0,0,229,5,0,0;                                                   89P     53
126,1,1,0,0,1,0,0.,0.,10.,10.,1.,1.,-50.,-24.9999999999999,160.,      91P     54
-50.,-25.,60.,0.,10.,0.,0.,0.;                                        91P     55
126,2,2,0,0,0,0,-0.785398163397448,-0.785398163397448,                93P     56
-0.785398163397448,0.785398163397448,0.785398163397448,               93P     57
0.785398163397448,1.,0.707106781186546,1.,-50.,-25.,60.,-50.,         93P     58
-50.,60.,-25.,-50.,60.,-0.785398163397448,0.785398163397448,0.,       93P     59
0.,0.;                                                                93P     60
126,1,1,0,0,1,0,-10.,-10.,2.5,2.5,1.,1.,-25.,-50.,60.,-25.,           95P     61
-49.9999999999999,185.,-10.,2.5,0.,0.,0.;                             95P     62
126,2,2,0,0,0,0,1.5707963267949,1.5707963267949,1.5707963267949,      97P     63
3.14159265358979,3.14159265358979,3.14159265358979,1.,                97P     64
0.707106781186548,1.,-25.,-49.9999999999999,185.,-50.,                97P     65
-49.9999999999999,160.,-50.,-24.9999999999999,160.,                   97P     66
1.5707963267949,3.14159265358979,0.,0.,0.;                            97P     67
126,1,1,0,0,1,0,-70.,-70.,2.5,2.5,1.,1.,-25.,-49.9999999999999,       99P     68
185.,-750.,-50.0000000000001,185.,-70.,2.5,0.,0.,0.;                  99P     69
126,2,2,0,0,0,0,-0.785398163397448,-0.785398163397448,               101P     70
-0.785398163397448,0.785398163397448,0.785398163397448,              101P     71
0.785398163397448,1.,0.707106781186547,1.,-750.,                     101P     72
-50.0000000000001,185.,-750.,-50.0000000000002,160.,-750.,           101P     73
-25.0000000000002,160.,-0.785398163397448,0.785398163397448,0.,      101P     74
0.,0.;                                                               101P     75
126,1,1,0,0,1,0,-2.5,-2.5,2.5,2.5,1.,1.,-750.,-25.0000000000002,     103P     76
160.,-700.,-25.0000000000001,160.,-2.5,2.5,0.,0.,0.;                 103P     77
126,1,1,0,0,1,0,2.5,2.5,67.5,67.5,1.,1.,-700.,-25.0000000000001,     105P     78
160.,-50.,-24.9999999999999,160.,2.5,67.5,0.,0.,0.;                  105P     79
126,1,1,0,0,1,0,-5.,-5.,0.,0.,1.,1.,-50.,25.0000000000001,160.,      107P     80
-50.,-24.9999999999999,160.,-5.,0.,0.,0.,0.;                         107P     81
126,1,1,0,0,1,0,-10.,-10.,0.,0.,1.,1.,-50.,25.,60.,-50.,             109P     82
25.0000000000001,160.,-10.,0.,0.,0.,0.;                              109P     83
126,1,1,0,0,1,0,2.5,2.5,7.5,7.5,1.,1.,-50.,-25.,60.,-50.,25.,        111P     84
60.,2.5,7.5,0.,0.,0.;                                                111P     85
126,1,1,0,0,1,0,2.5,2.5,7.5,7.5,1.,1.,-750.,24.9999999999998,        113P     86
160.,-750.,-25.0000000000002,160.,2.5,7.5,0.,0.,0.;                  113P     87
126,1,1,0,0,1,0,2.5,2.5,7.5,7.5,1.,1.,-700.,24.9999999999998,        115P     88
160.,-750.,24.9999999999998,160.,2.5,7.5,0.,0.,0.;                   115P     89
126,4,2,0,0,0,0,-3.14159265358979,-3.14159265358979,                 117P     90
-3.14159265358979,-1.5707963267949,-1.5707963267949,0.,0.,0.,1.,     117P     91
0.707106781186547,1.,0.707106781186548,1.,-700.,                     117P     92
24.9999999999999,160.,-725.,24.9999999999998,160.,-725.,             117P     93
-1.60651417645397D-13,160.,-725.,-25.0000000000002,160.,-700.,       117P     94
-25.0000000000002,160.,-3.14159265358979,0.,0.,0.,0.;                117P     95
126,4,2,0,0,0,0,0.,0.,0.,1.5707963267949,1.5707963267949,            119P     96
3.14159265358979,3.14159265358979,3.14159265358979,1.,               119P     97
0.707106781186548,1.,0.707106781186548,1.,-700.,                     119P     98
-25.0000000000002,160.,-675.,-25.0000000000001,160.,-675.,           119P     99
-1.43425953403409D-13,160.,-675.,24.9999999999999,160.,-700.,        119P    100
24.9999999999999,160.,0.,3.14159265358979,0.,0.,0.;                  119P    101
126,1,1,0,0,1,0,-62.5,-62.5,2.5,2.5,1.,1.,-50.,25.0000000000001,     121P    102
160.,-700.,24.9999999999998,160.,-62.5,2.5,0.,0.,0.;                 121P    103
126,1,1,0,0,1,0,2.5,2.5,7.5,7.5,1.,1.,-750.,-50.0000000000001,       123P    104
185.,-750.,-50.0000000000001,235.,2.5,7.5,0.,0.,0.;                  123P    105
126,2,2,0,0,0,0,-0.785398163397448,-0.785398163397448,               125P    106
-0.785398163397448,0.785398163397448,0.785398163397448,              125P    107
0.785398163397448,1.,0.707106781186548,1.,-750.,                     125P    108
-25.0000000000001,260.,-750.,-50.0000000000001,260.,-750.,           125P    109
-50.0000000000001,235.,-0.785398163397448,0.785398163397448,0.,      125P    110
0.,0.;                                                               125P    111
126,1,1,0,0,1,0,2.5,2.5,7.5,7.5,1.,1.,-750.,24.9999999999999,        127P    112
260.,-750.,-25.0000000000001,260.,2.5,7.5,0.,0.,0.;                  127P    113
126,2,2,0,0,0,0,-0.785398163397448,-0.785398163397448,               129P    114
-0.785398163397448,0.785398163397448,0.785398163397448,              129P    115
0.785398163397448,1.,0.707106781186546,1.,-750.,                     129P    116
49.9999999999999,235.,-750.,49.9999999999999,260.,-750.,             129P    117
24.9999999999999,260.,-0.785398163397448,0.785398163397448,0.,       129P    118
0.,0.;                                                               129P    119
126,1,1,0,0,1,0,2.5,2.5,7.5,7.5,1.,1.,-750.,49.9999999999998,        131P    120
185.,-750.,49.9999999999999,235.,2.5,7.5,0.,0.,0.;                   131P    121
126,2,2,0,0,0,0,-0.785398163397448,-0.785398163397448,               133P    122
-0.785398163397448,0.785398163397448,0.785398163397448,              133P    123
0.785398163397448,1.,0.707106781186546,1.,-750.,                     133P    124
24.9999999999998,160.,-750.,49.9999999999998,160.,-750.,             133P    125
49.9999999999998,185.,-0.785398163397448,0.785398163397448,0.,       133P    126
0.,0.;                                                               133P    127
126,1,1,0,0,1,0,-77.5,-77.5,2.5,2.5,1.,1.,50.,-24.9999999999998,     135P    128
260.,-750.,-25.0000000000001,260.,-77.5,2.5,0.,0.,0.;                135P    129
126,1,1,0,0,1,0,-2.5,-2.5,75.,75.,1.,1.,-750.,-50.0000000000001,     137P    130
235.,25.,-49.9999999999999,235.,-2.5,75.,0.,0.,0.;                   137P    131
126,2,2,0,0,0,0,1.5707963267949,1.5707963267949,1.5707963267949,     139P    132
3.14159265358979,3.14159265358979,3.14159265358979,1.,               139P    133
0.707106781186547,1.,25.,-49.9999999999999,235.,50.,                 139P    134
-49.9999999999998,260.,50.,-24.9999999999998,260.,                   139P    135
1.5707963267949,3.14159265358979,0.,0.,0.;                           139P    136
126,1,1,0,0,1,0,-7.5,-7.5,10.,10.,1.,1.,25.,-49.9999999999999,       141P    137
235.,25.,-49.9999999999999,60.,-7.5,10.,0.,0.,0.;                    141P    138
126,2,2,0,0,0,0,-0.785398163397448,-0.785398163397448,               143P    139
-0.785398163397448,0.785398163397448,0.785398163397448,              143P    140
0.785398163397448,1.,0.707106781186548,1.,25.,-49.9999999999999,     143P    141
60.,50.,-49.9999999999999,60.,50.,-24.9999999999999,60.,             143P    142
-0.785398163397448,0.785398163397448,0.,0.,0.;                       143P    143
126,1,1,0,0,1,0,-10.,-10.,10.,10.,1.,1.,50.,-24.9999999999999,       145P    144
60.,50.,-24.9999999999998,260.,-10.,10.,0.,0.,0.;                    145P    145
126,1,1,0,0,1,0,-7.5,-7.5,-2.5,-2.5,1.,1.,50.,25.0000000000001,      147P    146
260.,50.,-24.9999999999998,260.,-7.5,-2.5,0.,0.,0.;                  147P    147
126,1,1,0,0,1,0,-7.5,-7.5,72.5,72.5,1.,1.,-750.,                     149P    148
24.9999999999999,260.,50.,25.0000000000002,260.,-7.5,72.5,0.,0.,     149P    149
0.;                                                                  149P    150
126,1,1,0,0,1,0,2.5,2.5,7.5,7.5,1.,1.,50.,25.,60.,50.,-25.,60.,      151P    151
2.5,7.5,0.,0.,0.;                                                    151P    152
126,1,1,0,0,1,0,-10.,-10.,10.,10.,1.,1.,50.,25.0000000000002,        153P    153
260.,50.,25.,60.,-10.,10.,0.,0.,0.;                                  153P    154
126,2,2,0,0,0,0,-0.785398163397448,-0.785398163397448,               155P    155
-0.785398163397448,0.785398163397448,0.785398163397448,              155P    156
0.785398163397448,1.,0.707106781186549,1.,-25.,50.,60.,-50.,50.,     155P    157
60.,-50.,25.,60.,-0.785398163397448,0.785398163397448,0.,0.,0.;      155P    158
126,1,1,0,0,1,0,2.5,2.5,7.5,7.5,1.,1.,-25.,50.,60.,25.,50.,60.,      157P    159
2.5,7.5,0.,0.,0.;                                                    157P    160
126,2,2,0,0,0,0,-0.785398163397448,-0.785398163397448,               159P    161
-0.785398163397448,0.785398163397448,0.785398163397448,              159P    162
0.785398163397448,1.,0.707106781186546,1.,50.,25.,60.,50.,50.,       159P    163
60.,25.,50.,60.,-0.785398163397448,0.785398163397448,0.,0.,0.;       159P    164
126,1,1,0,0,1,0,2.5,2.5,7.5,7.5,1.,1.,25.,-50.,60.,-25.,-50.,        161P    165
60.,2.5,7.5,0.,0.,0.;                                                161P    166
126,8,2,0,1,0,0,-3.14159265358979,-3.14159265358979,                 163P    167
-3.14159265358979,-1.5707963267949,-1.5707963267949,0.,0.,           163P    168
1.5707963267949,1.5707963267949,3.14159265358979,                    163P    169
3.14159265358979,3.14159265358979,1.,0.707106781186548,1.,           163P    170
0.707106781186548,1.,0.707106781186548,1.,0.707106781186548,1.,      163P    171
1.16743491188625D-14,-25.,60.,25.,-25.,60.,25.,                      163P    172
4.41367740058162D-14,60.,25.,25.0000000000001,60.,                   163P    173
-8.61273212099418D-15,25.,60.,-25.,25.,60.,-25.,                     163P    174
2.69113097638279D-14,60.,-25.,-25.,60.,5.55111512312577D-15,         163P    175
-25.,60.,-3.14159265358979,3.14159265358979,0.,0.,0.;                163P    176
126,1,1,0,0,1,0,-70.,-70.,7.5,7.5,1.,1.,25.,50.0000000000001,        165P    177
235.,-750.,49.9999999999999,235.,-70.,7.5,0.,0.,0.;                  165P    178
126,2,2,0,0,0,0,-3.14159265358979,-3.14159265358979,                 167P    179
-3.14159265358979,-1.5707963267949,-1.5707963267949,                 167P    180
-1.5707963267949,1.,0.707106781186547,1.,50.,25.0000000000002,       167P    181
260.,50.,50.0000000000002,260.,25.,50.0000000000001,235.,            167P    182
-3.14159265358979,-1.5707963267949,0.,0.,0.;                         167P    183
126,1,1,0,0,1,0,-10.,-10.,7.5,7.5,1.,1.,25.,50.,60.,25.,             169P    184
50.0000000000001,235.,-10.,7.5,0.,0.,0.;                             169P    185
126,1,1,0,0,1,0,-2.5,-2.5,10.,10.,1.,1.,-25.,50.0000000000001,       171P    186
185.,-25.,50.,60.,-2.5,10.,0.,0.,0.;                                 171P    187
126,1,1,0,0,1,0,-7.5,-7.5,65.,65.,1.,1.,-750.,49.9999999999998,      173P    188
185.,-25.,50.0000000000001,185.,-7.5,65.,0.,0.,0.;                   173P    189
126,2,2,0,0,0,0,-1.5707963267949,-1.5707963267949,                   175P    190
-1.5707963267949,1.77635683940025D-16,1.77635683940025D-16,          175P    191
1.77635683940025D-16,1.,0.707106781186547,1.,-25.,                   175P    192
50.0000000000001,185.,-50.,50.0000000000001,160.,-50.,               175P    193
25.0000000000001,160.,-1.5707963267949,1.77635683940025D-16,0.,      175P    194
0.,0.;                                                               175P    195
126,1,1,0,0,1,0,-1.43988845995302D-16,-1.43988845995302D-16,2.,      177P    196
2.,1.,1.,8.61273212099416D-15,-25.,60.,8.61273212099415D-15,         177P    197
-24.9999999999999,110.,-1.43988845995302D-16,2.,0.,0.,0.;            177P    198
126,8,2,0,1,0,0,-3.14159265358979,-3.14159265358979,                 179P    199
-3.14159265358979,-1.5707963267949,-1.5707963267949,0.,0.,           179P    200
1.5707963267949,1.5707963267949,3.14159265358979,                    179P    201
3.14159265358979,3.14159265358979,1.,0.707106781186548,1.,           179P    202
0.707106781186548,1.,0.707106781186548,1.,0.707106781186548,1.,      179P    203
1.16743491188625D-14,-24.9999999999999,110.,25.,                     179P    204
-24.9999999999999,110.,25.,7.24644684940561D-14,110.,25.,            179P    205
25.0000000000001,110.,-8.61273212099418D-15,25.0000000000001,        179P    206
110.,-25.,25.0000000000001,110.,-25.,5.52390042520678D-14,110.,      179P    207
-25.,-25.,110.,5.55111512312577D-15,-24.9999999999999,110.,          179P    208
-3.14159265358979,3.14159265358979,0.,0.,0.;                         179P    209
126,8,2,0,1,0,0,-3.14159265358979,-3.14159265358979,                 181P    210
-3.14159265358979,-1.5707963267949,-1.5707963267949,0.,0.,           181P    211
1.5707963267949,1.5707963267949,3.14159265358979,                    181P    212
3.14159265358979,3.14159265358979,1.,0.707106781186548,1.,           181P    213
0.707106781186547,1.,0.707106781186548,1.,0.707106781186548,1.,      181P    214
-700.,24.9999999999998,100.,-675.,24.9999999999998,100.,-675.,       181P    215
-1.77419186789297D-13,100.,-675.,-25.0000000000002,100.,-700.,       181P    216
-25.0000000000002,100.,-725.,-25.0000000000002,100.,-725.,           181P    217
-1.94644651031285D-13,100.,-725.,24.9999999999998,100.,-700.,        181P    218
24.9999999999998,100.,-3.14159265358979,3.14159265358979,0.,0.,      181P    219
0.;                                                                  181P    220
126,1,1,0,0,1,0,-2.4,-2.4,6.00690037376034D-32,                      183P    221
6.00690037376034D-32,1.,1.,-700.,24.9999999999998,100.,-700.,        183P    222
24.9999999999999,160.,-2.4,6.00690037376034D-32,0.,0.,0.;            183P    223
128,1,2,1,2,0,0,0,0,0,-0.999999999999999,-0.999999999999999,4.,      185P    224
4.,-0.785398163397448,-0.785398163397448,-0.785398163397448,         185P    225
0.785398163397449,0.785398163397449,0.785398163397449,1.,1.,         185P    226
0.707106781186547,0.707106781186547,1.,1.,-25.,-50.,60.,-25.,        185P    227
-49.9999999999999,185.,-50.,-50.,60.,-50.,-49.9999999999999,         185P    228
185.,-50.,-25.,60.,-50.,-24.9999999999999,185.,                      185P    229
-0.999999999999999,4.,-0.785398163397448,0.785398163397449;          185P    230
128,1,2,1,2,0,0,0,0,0,-1.,-1.,28.,28.,-0.785398163397448,            187P    231
-0.785398163397448,-0.785398163397448,0.785398163397448,             187P    232
0.785398163397448,0.785398163397448,1.,1.,0.707106781186548,         187P    233
0.707106781186548,1.,1.,-25.,-49.9999999999999,185.,-750.,           187P    234
-50.0000000000001,185.,-25.,-49.9999999999999,160.,-750.,            187P    235
-50.0000000000001,160.,-25.,-24.9999999999999,160.,-750.,            187P    236
-25.0000000000001,160.,-1.,28.,-0.785398163397448,                   187P    237
0.785398163397448;                                                   187P    238
128,1,1,1,1,0,0,1,0,0,2.499,2.499,7.501,7.501,                       189P    239
-0.00100000000000425,-0.00100000000000425,10.001,10.001,1.,1.,       189P    240
1.,1.,-50.,-25.0099999999999,160.01,-50.,25.0100000000001,           189P    241
160.01,-50.,-25.01,59.99,-50.,25.01,59.99,2.499,7.501,               189P    242
-0.00100000000000425,10.001;                                         189P    243
128,1,1,1,1,0,0,1,0,0,-2.501,-2.501,2.501,2.501,-5.001,-5.001,       191P    244
0.00100000000000086,0.00100000000000086,1.,1.,1.,1.,-750.01,         191P    245
-25.0100000000002,160.,-750.01,25.0099999999998,160.,-699.99,        191P    246
-25.0100000000002,160.,-699.99,25.0099999999999,160.,-2.501,         191P    247
2.501,-5.001,0.00100000000000086;                                    191P    248
128,1,1,1,1,0,0,1,0,0,-2.501,-2.501,2.501,2.501,                     193P    249
-0.00100000000000086,-0.00100000000000086,65.001,65.001,1.,1.,       193P    250
1.,1.,-700.01,-25.0100000000002,160.,-700.01,25.0099999999999,       193P    251
160.,-49.99,-25.0099999999999,160.,-49.99,25.0100000000001,160.,     193P    252
-2.501,2.501,-0.00100000000000086,65.001;                            193P    253
128,1,1,1,1,0,0,1,0,0,-0.00100000000000199,-0.00100000000000199,     195P    254
10.001,10.001,-0.00100000000000355,-0.00100000000000355,10.001,      195P    255
10.001,1.,1.,1.,1.,-750.,50.0099999999998,159.99,-750.,              195P    256
-50.0100000000002,159.99,-750.,50.0099999999999,260.01,-750.,        195P    257
-50.0100000000001,260.01,-0.00100000000000199,10.001,                195P    258
-0.00100000000000355,10.001;                                         195P    259
128,1,2,1,2,0,0,0,0,0,-1.,-1.,31.,31.,-0.785398163397448,            197P    260
-0.785398163397448,-0.785398163397448,0.785398163397449,             197P    261
0.785398163397449,0.785398163397449,1.,1.,0.707106781186547,         197P    262
0.707106781186547,1.,1.,50.,-24.9999999999998,260.,-750.,            197P    263
-25.0000000000001,260.,50.,-49.9999999999998,260.,-750.,             197P    264
-50.0000000000001,260.,50.,-49.9999999999998,235.,-750.,             197P    265
-50.0000000000001,235.,-1.,31.,-0.785398163397448,                   197P    266
0.785398163397449;                                                   197P    267
128,1,2,1,2,0,0,0,0,0,-4.,-4.,4.,4.,-0.785398163397448,              199P    268
-0.785398163397448,-0.785398163397448,0.785398163397449,             199P    269
0.785398163397449,0.785398163397449,1.,1.,0.707106781186547,         199P    270
0.707106781186547,1.,1.,50.,-24.9999999999999,60.,50.,               199P    271
-24.9999999999998,260.,50.,-49.9999999999999,60.,50.,                199P    272
-49.9999999999998,260.,25.,-49.9999999999999,60.,25.,                199P    273
-49.9999999999998,260.,-4.,4.,-0.785398163397448,                    199P    274
0.785398163397449;                                                   199P    275
128,1,1,1,1,0,0,1,0,0,-2.501,-2.501,2.501,2.501,-5.001,-5.001,       201P    276
75.001,75.001,1.,1.,1.,1.,-750.01,25.0099999999999,260.,-750.01,     201P    277
-25.0100000000001,260.,50.01,25.0100000000002,260.,50.01,            201P    278
-25.0099999999998,260.,-2.501,2.501,-5.001,75.001;                   201P    279
128,1,1,1,1,0,0,1,0,0,-10.001,-10.001,10.001,10.001,-7.501,          203P    280
-7.501,-2.499,-2.499,1.,1.,1.,1.,50.,25.0100000000001,59.99,50.,     203P    281
25.0100000000002,260.01,50.,-25.01,59.99,50.,-25.0099999999998,      203P    282
260.01,-10.001,10.001,-7.501,-2.499;                                 203P    283
128,1,1,1,1,0,0,1,0,0,-5.001,-5.001,5.001,5.001,-5.001,-5.001,       205P    284
5.001,5.001,1.,1.,1.,1.,-50.01,-50.01,60.,-50.01,50.01,60.,          205P    285
50.01,-50.01,60.,50.01,50.01,60.,-5.001,5.001,-5.001,5.001;          205P    286
128,1,2,1,2,0,0,0,0,0,-3.,-3.,29.,29.,-0.785398163397448,            207P    287
-0.785398163397448,-0.785398163397448,0.785398163397448,             207P    288
0.785398163397448,0.785398163397448,1.,1.,0.707106781186548,         207P    289
0.707106781186548,1.,1.,50.,50.0000000000001,235.,-750.,             207P    290
49.9999999999999,235.,50.,50.0000000000001,260.,-750.,               207P    291
49.9999999999999,260.,50.,25.0000000000001,260.,-750.,               207P    292
24.9999999999999,260.,-3.,29.,-0.785398163397448,                    207P    293
0.785398163397448;                                                   207P    294
128,1,2,1,2,0,0,0,0,0,-4.,-4.,4.,4.,-0.785398163397448,              209P    295
-0.785398163397448,-0.785398163397448,0.785398163397449,             209P    296
0.785398163397449,0.785398163397449,1.,1.,0.707106781186547,         209P    297
0.707106781186547,1.,1.,25.,50.,59.9999999999999,25.,                209P    298
50.0000000000001,260.,50.,50.,59.9999999999999,50.,                  209P    299
50.0000000000001,260.,50.,25.,60.,50.,25.0000000000001,260.,-4.,     209P    300
4.,-0.785398163397448,0.785398163397449;                             209P    301
128,1,1,1,1,0,0,1,0,0,-67.501,-67.501,10.001,10.001,-10.001,         211P    302
-10.001,7.501,7.501,1.,1.,1.,1.,25.01,50.,59.99,-750.01,             211P    303
49.9999999999998,59.99,25.01,50.0000000000001,235.01,-750.01,        211P    304
49.9999999999999,235.01,-67.501,10.001,-10.001,7.501;                211P    305
128,1,2,1,2,0,0,0,0,0,-3.,-3.,26.,26.,-0.785398163397448,            213P    306
-0.785398163397448,-0.785398163397448,0.785398163397449,             213P    307
0.785398163397449,0.785398163397449,1.,1.,0.707106781186547,         213P    308
0.707106781186547,1.,1.,-25.,25.0000000000001,160.,-750.,            213P    309
24.9999999999998,160.,-25.,50.0000000000001,160.,-750.,              213P    310
49.9999999999998,160.,-25.,50.0000000000001,185.,-750.,              213P    311
49.9999999999998,185.,-3.,26.,-0.785398163397448,                    213P    312
0.785398163397449;                                                   213P    313
128,1,2,1,2,0,0,0,0,0,-1.,-1.,4.,4.,-0.785398163397448,              215P    314
-0.785398163397448,-0.785398163397448,0.785398163397448,             215P    315
0.785398163397448,0.785398163397448,1.,1.,0.707106781186547,         215P    316
0.707106781186547,1.,1.,-50.,25.,60.,-50.,25.0000000000001,185.,     215P    317
-50.,50.,59.9999999999999,-50.,50.0000000000001,185.,-25.,50.,       215P    318
59.9999999999999,-25.,50.0000000000001,185.,-1.,4.,                  215P    319
-0.785398163397448,0.785398163397448;                                215P    320
128,1,8,1,2,0,1,0,0,1,-1.43988845995302D-16,                         217P    321
-1.43988845995302D-16,2.,2.,-3.14159265358979,-3.14159265358979,     217P    322
-3.14159265358979,-1.5707963267949,-1.5707963267949,0.,0.,           217P    323
1.5707963267949,1.5707963267949,3.14159265358979,                    217P    324
3.14159265358979,3.14159265358979,1.,1.,0.707106781186548,           217P    325
0.707106781186548,1.,1.,0.707106781186548,0.707106781186548,1.,      217P    326
1.,0.707106781186548,0.707106781186548,1.,1.,0.707106781186548,      217P    327
0.707106781186548,1.,1.,8.61273212099416D-15,-25.,60.,               217P    328
8.61273212099415D-15,-24.9999999999999,110.,25.,-25.,60.,25.,        217P    329
-24.9999999999999,110.,25.,4.2605965506882D-14,60.,25.,              217P    330
7.09336599951219D-14,110.,25.,25.,60.,25.,25.0000000000001,110.,     217P    331
-8.61273212099418D-15,25.,60.,-8.61273212099418D-15,                 217P    332
25.0000000000001,110.,-25.,25.,60.,-25.,25.0000000000001,110.,       217P    333
-25.,2.53805012648937D-14,60.,-25.,5.37081957531336D-14,110.,        217P    334
-25.,-25.,60.,-25.,-25.,110.,8.61273212099416D-15,-25.,60.,          217P    335
8.61273212099415D-15,-24.9999999999999,110.,                         217P    336
-1.43988845995302D-16,2.,-3.14159265358979,3.14159265358979;         217P    337
128,1,1,1,1,0,0,1,0,0,-2.501,-2.501,2.501,2.501,-2.501,-2.501,       219P    338
2.501,2.501,1.,1.,1.,1.,-25.01,-25.01,110.,-25.01,                   219P    339
25.0100000000001,110.,25.01,-25.0099999999999,110.,25.01,            219P    340
25.0100000000001,110.,-2.501,2.501,-2.501,2.501;                     219P    341
128,1,1,1,1,0,0,1,0,0,-2.501,-2.501,2.501,2.501,-2.501,-2.501,       221P    342
2.501,2.501,1.,1.,1.,1.,-725.01,-25.0100000000002,100.,-725.01,      221P    343
25.0099999999998,100.,-674.99,-25.0100000000002,100.,-674.99,        221P    344
25.0099999999998,100.,-2.501,2.501,-2.501,2.501;                     221P    345
128,1,8,1,2,0,1,0,0,1,-6.00690037376034D-32,                         223P    346
-6.00690037376034D-32,2.4,2.4,-3.14159265358979,                     223P    347
-3.14159265358979,-3.14159265358979,-1.5707963267949,                223P    348
-1.5707963267949,0.,0.,1.5707963267949,1.5707963267949,              223P    349
3.14159265358979,3.14159265358979,3.14159265358979,1.,1.,            223P    350
0.707106781186548,0.707106781186548,1.,1.,0.707106781186548,         223P    351
0.707106781186548,1.,1.,0.707106781186548,0.707106781186548,1.,      223P    352
1.,0.707106781186548,0.707106781186548,1.,1.,-700.,                  223P    353
24.9999999999998,100.,-700.,24.9999999999999,160.,-675.,             223P    354
24.9999999999998,100.,-675.,24.9999999999999,160.,-675.,             223P    355
-1.84501110411357D-13,100.,-675.,-1.50507877025469D-13,160.,         223P    356
-675.,-25.0000000000002,100.,-675.,-25.0000000000001,160.,-700.,     223P    357
-25.0000000000002,100.,-700.,-25.0000000000002,160.,-725.,           223P    358
-25.0000000000002,100.,-725.,-25.0000000000001,160.,-725.,           223P    359
-1.84501110411357D-13,100.,-725.,-1.50507877025469D-13,160.,         223P    360
-725.,24.9999999999998,100.,-725.,24.9999999999999,160.,-700.,       223P    361
24.9999999999998,100.,-700.,24.9999999999999,160.,                   223P    362
-6.00690037376034D-32,2.4,-3.14159265358979,3.14159265358979;        223P    363
128,1,1,1,1,0,0,1,0,0,-0.001,-0.001,77.501,77.501,-10.001,           225P    364
-10.001,7.501,7.501,1.,1.,1.,1.,-750.01,-50.0000000000002,59.99,     225P    365
25.01,-50.,59.99,-750.01,-50.0000000000001,235.01,25.01,             225P    366
-49.9999999999999,235.01,-0.001,77.501,-10.001,7.501;                225P    367
502,29,-50.,-24.9999999999999,160.,-50.,-25.,60.,-25.,-50.,60.,      227P    368
-25.,-49.9999999999999,185.,-750.,-50.0000000000001,185.,-750.,      227P    369
-25.0000000000002,160.,-700.,-25.0000000000001,160.,-50.,            227P    370
25.0000000000001,160.,-50.,25.,60.,-750.,24.9999999999998,160.,      227P    371
-700.,24.9999999999999,160.,-750.,-50.0000000000001,235.,-750.,      227P    372
-25.0000000000001,260.,-750.,24.9999999999999,260.,-750.,            227P    373
49.9999999999999,235.,-750.,49.9999999999998,185.,50.,               227P    374
-24.9999999999998,260.,25.,-49.9999999999999,235.,25.,-50.,60.,      227P    375
50.,-24.9999999999999,60.,50.,25.0000000000002,260.,50.,25.,60.,     227P    376
-25.,50.,60.,25.,50.,60.,5.55111512312578D-15,-25.,60.,25.,          227P    377
50.0000000000001,235.,-25.,50.0000000000001,185.,                    227P    378
5.55111512312577D-15,-25.,110.,-700.,24.9999999999998,100.;          227P    379
504,47,91,227,1,227,2,93,227,2,227,3,95,227,3,227,4,97,227,4,        229P    380
227,1,99,227,4,227,5,101,227,5,227,6,103,227,6,227,7,105,227,7,      229P    381
227,1,107,227,8,227,1,109,227,9,227,8,111,227,2,227,9,113,227,       229P    382
10,227,6,115,227,11,227,10,117,227,11,227,7,119,227,7,227,11,        229P    383
121,227,8,227,11,123,227,5,227,12,125,227,13,227,12,127,227,14,      229P    384
227,13,129,227,15,227,14,131,227,16,227,15,133,227,10,227,16,        229P    385
135,227,17,227,13,137,227,12,227,18,139,227,18,227,17,141,227,       229P    386
18,227,19,143,227,19,227,20,145,227,20,227,17,147,227,21,227,17,     229P    387
149,227,14,227,21,151,227,22,227,20,153,227,21,227,22,155,227,       229P    388
23,227,9,157,227,23,227,24,159,227,22,227,24,161,227,19,227,3,       229P    389
163,227,25,227,25,165,227,26,227,15,167,227,21,227,26,169,227,       229P    390
24,227,26,171,227,27,227,23,173,227,16,227,27,175,227,27,227,8,      229P    391
177,227,25,227,28,179,227,28,227,28,181,227,29,227,29,183,227,       229P    392
29,227,11;                                                           229P    393
406,1,5HBody1;                                                       231P    394
314,62.7450980392157,62.7450980392157,62.7450980392157,13HSteel      233P    395
- Satin;                                                             233P    396
S      1G      3D    234P    396                                        T      1
